<?xml version="1.0" encoding="utf-8"?>
<!-- Generator: Adobe Illustrator 26.5.0, SVG Export Plug-In . SVG Version: 6.00 Build 0)  -->
<svg version="1.1" id="Layer_1" xmlns="http://www.w3.org/2000/svg" xmlns:xlink="http://www.w3.org/1999/xlink" x="0px" y="0px"
	 viewBox="0 0 241.3 210.1" style="enable-background:new 0 0 241.3 210.1;" xml:space="preserve">
<style type="text/css">
	.st0{fill:#FFFFFF;stroke:#8952A0;stroke-width:2;stroke-miterlimit:10;}
	.st1{fill:#8952A0;stroke:#8952A0;stroke-width:2;stroke-miterlimit:10;}
	.st2{fill:#FFFFFF;}
	.st3{fill:#4F5E6F;}
	.st4{fill:#97C93C;}
	.st5{fill:#C53854;}
	.st6{fill:#6AC5B5;}
	.st7{fill-rule:evenodd;clip-rule:evenodd;fill:#C65F2D;}
	.st8{fill-rule:evenodd;clip-rule:evenodd;fill:#B1B4B6;}
	.st9{fill:#1A1919;}
	.st10{fill:#8952A0;stroke:#8952A0;stroke-width:4;stroke-miterlimit:10;}
	.st11{fill-rule:evenodd;clip-rule:evenodd;fill:#A1CC3A;}
	.st12{fill-rule:evenodd;clip-rule:evenodd;fill:#40833F;}
	.st13{fill-rule:evenodd;clip-rule:evenodd;fill:#40843F;}
	.st14{fill-rule:evenodd;clip-rule:evenodd;fill:#18191A;}
</style>
<g id="Layer_1_00000011012464862769060800000000282323081847211948_">
	<g>
		<g>
			<path class="st0" d="M222.7,184.6c0,3.4-2.8,6.2-6.2,6.2H24.8c-3.4,0-6.2-2.8-6.2-6.2V25.4c0-3.4,2.8-6.2,6.2-6.2h191.6
				c3.4,0,6.2,2.8,6.2,6.2L222.7,184.6L222.7,184.6z"/>
			<path class="st1" d="M18.6,49.3V25.4c0-3.4,2.8-6.2,6.2-6.2h191.6c3.4,0,6.2,2.8,6.2,6.2v23.9H18.6z"/>
			<g>
				<g>
					<path class="st2" d="M82,35.9v4.4h-1.2V29.7h2.9c1.3,0,2.3,0.2,2.9,0.7c0.6,0.5,0.9,1.2,0.9,2.2c0,1.4-0.7,2.4-2.1,2.8l2.9,4.8
						h-1.5l-2.6-4.4H82z M82,34.8h1.7c0.9,0,1.5-0.2,1.9-0.5s0.6-0.9,0.6-1.6c0-0.7-0.2-1.2-0.6-1.5c-0.4-0.3-1.1-0.5-2-0.5H82
						L82,34.8L82,34.8z"/>
					<path class="st2" d="M93.1,40.5c-1.2,0-2.1-0.4-2.8-1.1c-0.7-0.7-1-1.7-1-3c0-1.3,0.3-2.3,0.9-3.1c0.6-0.8,1.5-1.1,2.5-1.1
						c1,0,1.8,0.3,2.4,1c0.6,0.7,0.9,1.5,0.9,2.6v0.8h-5.5c0,0.9,0.3,1.6,0.7,2.1c0.4,0.5,1.1,0.7,1.9,0.7c0.9,0,1.7-0.2,2.5-0.5
						v1.1c-0.4,0.2-0.8,0.3-1.2,0.4C94.1,40.4,93.6,40.5,93.1,40.5z M92.8,33.2c-0.6,0-1.1,0.2-1.5,0.6c-0.4,0.4-0.6,1-0.7,1.7h4.2
						c0-0.8-0.2-1.3-0.5-1.7C93.9,33.4,93.4,33.2,92.8,33.2z"/>
					<path class="st2" d="M101.8,40.5c-0.5,0-1-0.1-1.4-0.3c-0.4-0.2-0.8-0.5-1.1-0.9h-0.1c0.1,0.5,0.1,0.9,0.1,1.3v3.3h-1.2V32.4h1
						l0.2,1.1h0.1c0.3-0.4,0.7-0.8,1.1-0.9s0.9-0.3,1.4-0.3c1.1,0,1.9,0.4,2.4,1.1c0.6,0.7,0.9,1.7,0.9,3c0,1.3-0.3,2.3-0.9,3
						C103.6,40.1,102.8,40.5,101.8,40.5z M101.6,33.2c-0.8,0-1.4,0.2-1.8,0.7s-0.5,1.2-0.6,2.1v0.3c0,1.1,0.2,1.9,0.6,2.4
						s1,0.7,1.8,0.7c0.7,0,1.2-0.3,1.6-0.8c0.4-0.6,0.6-1.3,0.6-2.3c0-1-0.2-1.8-0.6-2.3C102.8,33.5,102.3,33.2,101.6,33.2z"/>
					<path class="st2" d="M114,36.3c0,1.3-0.3,2.3-1,3c-0.7,0.7-1.6,1.1-2.7,1.1c-0.7,0-1.3-0.2-1.9-0.5c-0.6-0.3-1-0.8-1.3-1.4
						s-0.5-1.4-0.5-2.2c0-1.3,0.3-2.3,1-3c0.6-0.7,1.5-1.1,2.7-1.1c1.1,0,2,0.4,2.7,1.1C113.7,34.1,114,35.1,114,36.3z M108,36.3
						c0,1,0.2,1.8,0.6,2.3c0.4,0.5,1,0.8,1.8,0.8c0.8,0,1.4-0.3,1.8-0.8c0.4-0.5,0.6-1.3,0.6-2.3c0-1-0.2-1.8-0.6-2.3
						c-0.4-0.5-1-0.8-1.8-0.8c-0.8,0-1.4,0.3-1.8,0.8S108,35.3,108,36.3z"/>
					<path class="st2" d="M121.3,38.2c0,0.7-0.3,1.3-0.8,1.7c-0.6,0.4-1.3,0.6-2.3,0.6c-1.1,0-1.9-0.2-2.5-0.5v-1.1
						c0.4,0.2,0.8,0.3,1.2,0.5s0.9,0.2,1.3,0.2c0.6,0,1.1-0.1,1.5-0.3c0.3-0.2,0.5-0.5,0.5-0.9c0-0.3-0.1-0.6-0.4-0.8
						c-0.3-0.2-0.8-0.5-1.6-0.8c-0.7-0.3-1.3-0.5-1.6-0.7c-0.3-0.2-0.5-0.4-0.7-0.7c-0.2-0.3-0.2-0.6-0.2-0.9c0-0.6,0.3-1.2,0.8-1.5
						c0.5-0.4,1.3-0.6,2.2-0.6c0.9,0,1.7,0.2,2.5,0.5l-0.4,1c-0.8-0.3-1.5-0.5-2.2-0.5c-0.6,0-1,0.1-1.3,0.3s-0.4,0.4-0.4,0.7
						c0,0.2,0.1,0.4,0.2,0.5c0.1,0.2,0.3,0.3,0.5,0.4c0.2,0.1,0.7,0.3,1.4,0.6c0.9,0.3,1.6,0.7,1.9,1
						C121.1,37.2,121.3,37.6,121.3,38.2z"/>
					<path class="st2" d="M123.1,30.2c0-0.3,0.1-0.5,0.2-0.6c0.1-0.1,0.3-0.2,0.5-0.2c0.2,0,0.4,0.1,0.5,0.2
						c0.1,0.1,0.2,0.3,0.2,0.6s-0.1,0.5-0.2,0.6c-0.1,0.1-0.3,0.2-0.5,0.2c-0.2,0-0.4-0.1-0.5-0.2C123.2,30.7,123.1,30.5,123.1,30.2
						z M124.4,40.3h-1.2v-8h1.2V40.3z"/>
					<path class="st2" d="M129.6,39.5c0.2,0,0.4,0,0.6,0s0.4-0.1,0.5-0.1v0.9c-0.1,0.1-0.3,0.1-0.6,0.2s-0.5,0.1-0.7,0.1
						c-1.5,0-2.3-0.8-2.3-2.4v-4.7h-1.1v-0.6l1.1-0.5l0.5-1.7h0.7v1.8h2.3v0.9h-2.3V38c0,0.5,0.1,0.8,0.3,1.1
						C128.9,39.3,129.2,39.5,129.6,39.5z"/>
					<path class="st2" d="M139.1,36.3c0,1.3-0.3,2.3-1,3c-0.7,0.7-1.6,1.1-2.7,1.1c-0.7,0-1.3-0.2-1.9-0.5c-0.6-0.3-1-0.8-1.3-1.4
						s-0.5-1.4-0.5-2.2c0-1.3,0.3-2.3,1-3c0.6-0.7,1.5-1.1,2.7-1.1c1.1,0,2,0.4,2.7,1.1C138.8,34.1,139.1,35.1,139.1,36.3z
						 M133,36.3c0,1,0.2,1.8,0.6,2.3c0.4,0.5,1,0.8,1.8,0.8c0.8,0,1.4-0.3,1.8-0.8c0.4-0.5,0.6-1.3,0.6-2.3c0-1-0.2-1.8-0.6-2.3
						c-0.4-0.5-1-0.8-1.8-0.8c-0.8,0-1.4,0.3-1.8,0.8S133,35.3,133,36.3z"/>
					<path class="st2" d="M144.8,32.2c0.4,0,0.7,0,1,0.1l-0.2,1.1c-0.3-0.1-0.6-0.1-0.9-0.1c-0.6,0-1.2,0.3-1.7,0.8s-0.7,1.2-0.7,2
						v4.3h-1.2v-8h1l0.1,1.5h0.1c0.3-0.5,0.7-0.9,1.1-1.2C143.9,32.4,144.3,32.2,144.8,32.2z"/>
					<path class="st2" d="M147.2,30.2c0-0.3,0.1-0.5,0.2-0.6c0.1-0.1,0.3-0.2,0.5-0.2c0.2,0,0.4,0.1,0.5,0.2
						c0.1,0.1,0.2,0.3,0.2,0.6s-0.1,0.5-0.2,0.6c-0.1,0.1-0.3,0.2-0.5,0.2c-0.2,0-0.4-0.1-0.5-0.2C147.2,30.7,147.2,30.5,147.2,30.2
						z M148.5,40.3h-1.2v-8h1.2V40.3z"/>
					<path class="st2" d="M154.4,40.5c-1.2,0-2.1-0.4-2.8-1.1s-1-1.7-1-3c0-1.3,0.3-2.3,0.9-3.1c0.6-0.8,1.5-1.1,2.5-1.1
						c1,0,1.8,0.3,2.4,1c0.6,0.7,0.9,1.5,0.9,2.6v0.8h-5.5c0,0.9,0.3,1.6,0.7,2.1c0.4,0.5,1.1,0.7,1.9,0.7c0.9,0,1.7-0.2,2.5-0.5
						v1.1c-0.4,0.2-0.8,0.3-1.2,0.4C155.4,40.4,154.9,40.5,154.4,40.5z M154.1,33.2c-0.6,0-1.1,0.2-1.5,0.6s-0.6,1-0.7,1.7h4.2
						c0-0.8-0.2-1.3-0.5-1.7C155.2,33.4,154.7,33.2,154.1,33.2z"/>
					<path class="st2" d="M164.5,38.2c0,0.7-0.3,1.3-0.8,1.7c-0.6,0.4-1.3,0.6-2.3,0.6c-1.1,0-1.9-0.2-2.5-0.5v-1.1
						c0.4,0.2,0.8,0.3,1.2,0.5s0.9,0.2,1.3,0.2c0.6,0,1.1-0.1,1.5-0.3c0.3-0.2,0.5-0.5,0.5-0.9c0-0.3-0.1-0.6-0.4-0.8
						c-0.3-0.2-0.8-0.5-1.6-0.8c-0.7-0.3-1.3-0.5-1.6-0.7c-0.3-0.2-0.5-0.4-0.7-0.7c-0.2-0.3-0.2-0.6-0.2-0.9c0-0.6,0.3-1.2,0.8-1.5
						c0.5-0.4,1.3-0.6,2.2-0.6c0.9,0,1.7,0.2,2.5,0.5l-0.4,1c-0.8-0.3-1.5-0.5-2.2-0.5c-0.6,0-1,0.1-1.3,0.3s-0.4,0.4-0.4,0.7
						c0,0.2,0.1,0.4,0.2,0.5c0.1,0.2,0.3,0.3,0.5,0.4c0.2,0.1,0.7,0.3,1.4,0.6c0.9,0.3,1.6,0.7,1.9,1
						C164.3,37.2,164.5,37.6,164.5,38.2z"/>
				</g>
			</g>
			<g>
				<g>
					<g>
						<g transform="matrix(0.61524215,0,0,0.61524215,1,0.91434476)">
							<path class="st3" d="M217,117.6c-0.3,0-0.5,0.1-0.8,0.3c-0.6,0.4-0.7,1.3-0.3,1.9c0.4,0.6,1.3,0.7,1.9,0.3
								c0.6-0.4,0.7-1.3,0.3-1.9C217.9,117.8,217.5,117.6,217,117.6z M234.6,117.6c-0.4,0-0.9,0.2-1.1,0.6c-0.4,0.6-0.3,1.5,0.3,1.9
								c0.6,0.4,1.5,0.3,1.9-0.3c0.4-0.6,0.3-1.5-0.3-1.9C235.1,117.7,234.9,117.6,234.6,117.6z M231.6,118.7
								c-0.4,0-0.9,0.2-1.1,0.6c-0.3,0.6-0.1,1.3,0.5,1.5c0.6,0.3,1.3,0.1,1.5-0.5c0.3-0.6,0.1-1.3-0.5-1.5
								C231.9,118.7,231.7,118.7,231.6,118.7z M229,120.1c-0.4,0-0.7,0.3-0.8,0.7c-0.2,0.5,0.1,1,0.6,1.2c0.5,0.2,1-0.1,1.2-0.6
								c0.2-0.5-0.1-1-0.6-1.2C229.2,120.1,229.1,120.1,229,120.1z M217,121c-0.3,0-0.6,0.1-0.8,0.3c-0.4,0.4-0.4,1.2,0,1.6
								s1.2,0.5,1.6,0c0.4-0.4,0.4-1.2,0-1.6C217.6,121.1,217.3,121,217,121L217,121z M227.1,121.6c-0.4,0-0.7,0.3-0.7,0.7
								c-0.1,0.4,0.2,0.8,0.7,0.9c0.4,0.1,0.8-0.2,0.9-0.7c0.1-0.4-0.2-0.8-0.7-0.9C227.3,121.6,227.2,121.6,227.1,121.6z
								 M225.8,123.1c-0.4,0-0.7,0.3-0.7,0.7c0,0.4,0.3,0.7,0.7,0.7c0.4,0,0.7-0.3,0.7-0.7C226.5,123.4,226.2,123.1,225.8,123.1z
								 M217.4,123.9c-0.3,0-0.6,0.1-0.8,0.4c-0.3,0.4-0.2,1,0.2,1.3c0.4,0.3,1,0.2,1.3-0.2s0.2-1-0.2-1.3
								C217.8,124,217.6,123.9,217.4,123.9z M224.9,124.6c0,0-0.1,0-0.1,0c-0.3,0-0.5,0.3-0.5,0.6c0,0.3,0.3,0.5,0.6,0.5
								c0.3-0.1,0.5-0.3,0.5-0.6C225.4,124.8,225.2,124.6,224.9,124.6z M218.1,126.2c-0.3,0-0.6,0.1-0.8,0.4c-0.2,0.4,0,0.9,0.3,1.1
								c0.4,0.2,0.9,0,1.1-0.3c0.2-0.4,0-0.9-0.3-1.1C218.3,126.3,218.2,126.2,218.1,126.2z M231.1,127.7c-0.1,0-0.1,0-0.2,0.1
								c-0.3,0.1-0.4,0.5-0.2,0.7c0.1,0.3,0.5,0.4,0.7,0.2c0.3-0.1,0.4-0.5,0.2-0.7C231.5,127.8,231.3,127.7,231.1,127.7z
								 M218.9,128.1c-0.3,0-0.5,0.2-0.6,0.5c-0.1,0.3,0.1,0.7,0.4,0.8c0.3,0.1,0.7-0.1,0.8-0.4c0.1-0.3-0.1-0.7-0.4-0.8
								C219.1,128.1,219,128.1,218.9,128.1z M232.7,128.1c-0.1,0-0.2,0-0.3,0c-0.3,0.1-0.5,0.5-0.4,0.8c0.1,0.3,0.5,0.5,0.8,0.4
								c0.3-0.1,0.5-0.5,0.4-0.8C233.2,128.3,233,128.1,232.7,128.1z M234.5,128.8c-0.1,0-0.1,0-0.2,0c-0.4,0.1-0.7,0.5-0.7,0.9
								c0.1,0.4,0.5,0.7,0.9,0.7c0.4-0.1,0.7-0.5,0.7-0.9C235.1,129.1,234.8,128.8,234.5,128.8z M220,129.5c-0.2,0-0.5,0.2-0.5,0.5
								c0,0.3,0.2,0.6,0.5,0.6c0.3,0,0.6-0.2,0.6-0.4c0-0.3-0.2-0.6-0.5-0.6C220,129.5,220,129.5,220,129.5z M236.3,130
								c-0.5,0-1,0.4-1,1c0,0.5,0.4,1,1,1c0.5,0,1-0.4,1-1C237.2,130.4,236.8,130,236.3,130z M238.1,131.8c-0.5,0-1,0.4-1.1,1
								c-0.1,0.6,0.3,1.2,1,1.3c0.6,0.1,1.2-0.3,1.3-1c0.1-0.6-0.3-1.2-1-1.3C238.3,131.8,238.2,131.8,238.1,131.8z M211.8,134.2
								c-0.2,0-0.4,0-0.5,0.1c-0.7,0.2-1.1,1-0.9,1.7c0.2,0.7,1,1.1,1.7,0.9c0.7-0.2,1.1-1,0.9-1.7
								C212.8,134.6,212.3,134.3,211.8,134.2z M239.8,134.2c-0.5,0-1,0.4-1.2,0.9c-0.2,0.7,0.2,1.5,0.9,1.7c0.7,0.2,1.5-0.2,1.7-0.9
								c0.2-0.7-0.2-1.5-0.9-1.7C240.2,134.2,240,134.2,239.8,134.2z M230,134.6c-0.1,0-0.3,0.1-0.4,0.2c-0.2,0.2-0.2,0.6,0,0.8
								c0.2,0.2,0.6,0.2,0.8,0c0.2-0.2,0.2-0.6,0-0.8C230.3,134.7,230.1,134.6,230,134.6L230,134.6z M214.6,135.5
								c-0.1,0-0.3,0-0.4,0.1c-0.6,0.3-0.8,1-0.5,1.5c0.3,0.6,1,0.8,1.5,0.5c0.6-0.3,0.8-1,0.5-1.5
								C215.5,135.7,215,135.5,214.6,135.5z M223.2,135.7c-0.2,0-0.4,0.1-0.5,0.3c-0.1,0.3,0,0.6,0.2,0.7c0.3,0.1,0.6,0,0.7-0.2
								c0.1-0.3,0-0.6-0.2-0.7C223.3,135.7,223.2,135.7,223.2,135.7z M221.6,136.1c-0.2,0-0.4,0.1-0.6,0.3c-0.2,0.3-0.2,0.7,0.1,0.9
								c0.3,0.2,0.7,0.2,0.9-0.1c0.2-0.3,0.1-0.7-0.1-0.9C221.9,136.2,221.7,136.1,221.6,136.1z M230,136.1c-0.1,0-0.3,0-0.4,0.1
								c-0.3,0.2-0.4,0.6-0.1,0.9c0.2,0.3,0.6,0.4,0.9,0.1c0.3-0.2,0.4-0.6,0.1-0.9C230.4,136.2,230.2,136.1,230,136.1z
								 M217.3,136.2c-0.2,0-0.4,0.1-0.5,0.2c-0.4,0.3-0.5,0.9-0.2,1.3c0.3,0.4,0.9,0.5,1.3,0.2c0.4-0.3,0.5-0.9,0.2-1.3
								C218,136.3,217.7,136.1,217.3,136.2z M219.7,136.3c-0.2,0-0.4,0.1-0.6,0.2l0,0c-0.3,0.3-0.3,0.8,0,1.1c0.3,0.3,0.8,0.3,1.1,0
								c0.3-0.3,0.3-0.8,0-1.1C220.1,136.4,219.9,136.3,219.7,136.3z M229.7,137.9c-0.1,0-0.2,0-0.3,0.1c-0.4,0.2-0.5,0.7-0.3,1.1
								c0.2,0.4,0.7,0.5,1.1,0.3c0.4-0.2,0.5-0.7,0.3-1.1C230.3,138.1,230,137.9,229.7,137.9z M229.1,139.9c-0.1,0-0.2,0-0.4,0
								c-0.5,0.2-0.8,0.7-0.6,1.2c0.2,0.5,0.7,0.8,1.2,0.6c0.5-0.2,0.8-0.7,0.6-1.2C229.8,140.2,229.5,140,229.1,139.9z
								 M227.8,142.2c-0.1,0-0.2,0-0.2,0c-0.6,0.1-1.1,0.7-1,1.3s0.7,1.1,1.3,1c0.6-0.1,1.1-0.7,1-1.3
								C228.8,142.6,228.4,142.2,227.8,142.2z M225.8,144.5c-0.8,0-1.4,0.6-1.4,1.4c0,0.8,0.6,1.4,1.4,1.4c0.8,0,1.4-0.6,1.4-1.4
								C227.2,145.1,226.6,144.5,225.8,144.5z"/>
							<path class="st4" d="M225.8,114.8c-0.8,0-1.4,0.6-1.4,1.4c0,0.8,0.6,1.4,1.4,1.4c0.8,0,1.4-0.6,1.4-1.4
								C227.2,115.4,226.6,114.8,225.8,114.8z M223.9,117.5c-0.1,0-0.2,0-0.2,0c-0.6,0.1-1.1,0.7-1,1.3c0.1,0.6,0.7,1.1,1.3,1
								c0.6-0.1,1.1-0.7,1-1.3C224.9,117.9,224.4,117.5,223.9,117.5z M222.7,120.1c-0.1,0-0.3,0-0.4,0c-0.5,0.2-0.8,0.7-0.6,1.2
								c0.2,0.5,0.7,0.8,1.2,0.6c0.5-0.2,0.8-0.7,0.6-1.2C223.4,120.4,223.1,120.1,222.7,120.1z M221.8,122.4c-0.1,0-0.2,0-0.3,0.1
								c-0.4,0.2-0.5,0.7-0.4,1.1c0.2,0.4,0.7,0.5,1.1,0.3c0.4-0.2,0.5-0.7,0.3-1.1C222.4,122.6,222.1,122.4,221.8,122.4z
								 M234.2,123.9c-0.2,0-0.4,0.1-0.5,0.2c-0.4,0.3-0.5,0.9-0.2,1.3c0.3,0.4,0.9,0.5,1.3,0.2c0.4-0.3,0.5-0.9,0.2-1.3
								C234.9,124,234.5,123.9,234.2,123.9z M232,124c-0.2,0-0.4,0.1-0.6,0.2c-0.3,0.3-0.3,0.8,0,1.1c0.3,0.3,0.8,0.3,1.1,0
								c0.3-0.3,0.3-0.8,0-1.1C232.4,124.1,232.2,124,232,124z M236.9,124.1c-0.1,0-0.3,0.1-0.4,0.1c-0.6,0.3-0.8,1-0.5,1.5
								c0.3,0.6,1,0.8,1.5,0.5c0.6-0.3,0.8-1,0.5-1.5C237.8,124.3,237.4,124.1,236.9,124.1z M221.6,124.5c-0.1,0-0.3,0-0.4,0.1
								c-0.3,0.2-0.4,0.6-0.1,0.9c0.2,0.3,0.6,0.4,0.9,0.1c0.3-0.2,0.4-0.6,0.1-0.9C222,124.6,221.8,124.5,221.6,124.5z
								 M230.1,124.5c-0.2,0-0.4,0.1-0.6,0.3c-0.2,0.3-0.1,0.7,0.1,0.9c0.3,0.2,0.7,0.1,0.9-0.1c0.2-0.3,0.1-0.7-0.1-0.9
								C230.3,124.5,230.2,124.5,230.1,124.5z M211.6,125c-0.5,0.1-1,0.4-1.2,0.9c-0.2,0.7,0.2,1.5,0.9,1.7c0.7,0.2,1.5-0.2,1.7-0.9
								c0.2-0.7-0.2-1.5-0.9-1.7C211.9,125,211.8,125,211.6,125z M240.1,125c-0.2,0-0.4,0-0.5,0.1c-0.7,0.2-1.1,1-0.9,1.7
								c0.2,0.7,1,1.1,1.7,0.9c0.7-0.2,1.1-1,0.9-1.7C241.1,125.4,240.6,125.1,240.1,125z M228.5,125.2c-0.2,0-0.4,0.1-0.5,0.3
								c-0.1,0.3,0,0.6,0.2,0.7c0.3,0.1,0.6,0,0.7-0.2c0.1-0.3,0-0.6-0.2-0.7C228.7,125.2,228.6,125.2,228.5,125.2z M221.6,126.2
								c-0.1,0-0.3,0.1-0.4,0.2c-0.2,0.2-0.2,0.6,0,0.8s0.6,0.2,0.8,0c0.2-0.2,0.2-0.6,0-0.8C221.9,126.3,221.8,126.2,221.6,126.2
								L221.6,126.2z M213.4,127.9c-0.5,0-1,0.4-1.1,1c-0.1,0.6,0.3,1.2,1,1.3c0.6,0.1,1.2-0.3,1.3-1s-0.3-1.2-1-1.3
								C213.6,127.9,213.5,127.9,213.4,127.9z M215.4,130c-0.5,0-1,0.4-1,1c0,0.5,0.4,1,1,1c0.5,0,1-0.4,1-1
								C216.3,130.4,215.9,130,215.4,130z M231.6,131.4c-0.3,0-0.5,0.2-0.5,0.5c0,0.3,0.2,0.6,0.5,0.6c0.3,0,0.6-0.2,0.6-0.5
								c0.1-0.3-0.2-0.6-0.5-0.6C231.7,131.4,231.7,131.4,231.6,131.4z M217.3,131.5c-0.1,0-0.1,0-0.2,0c-0.4,0.1-0.7,0.5-0.7,0.9
								c0.1,0.4,0.5,0.7,0.9,0.7c0.4-0.1,0.7-0.5,0.7-0.9C218,131.8,217.6,131.6,217.3,131.5z M219,132.5c-0.1,0-0.2,0-0.3,0
								c-0.3,0.1-0.5,0.5-0.4,0.8c0.1,0.3,0.5,0.5,0.8,0.4s0.5-0.5,0.4-0.8C219.5,132.7,219.3,132.6,219,132.5z M232.6,132.5
								c-0.3,0-0.5,0.2-0.6,0.5c-0.1,0.3,0.1,0.7,0.4,0.8c0.3,0.1,0.7-0.1,0.8-0.4c0.1-0.4-0.1-0.7-0.4-0.8
								C232.8,132.5,232.7,132.5,232.6,132.5z M220.5,133.1c-0.1,0-0.1,0-0.2,0.1c-0.3,0.1-0.4,0.5-0.2,0.7c0.1,0.3,0.5,0.4,0.7,0.2
								c0.3-0.1,0.4-0.5,0.2-0.7C220.9,133.2,220.7,133.1,220.5,133.1z M233.6,134.1c-0.3,0-0.6,0.1-0.8,0.4c-0.2,0.4,0,0.9,0.3,1.1
								c0.4,0.2,0.9,0,1.1-0.4c0.2-0.4,0-0.9-0.3-1.1C233.8,134.2,233.7,134.1,233.6,134.1z M234.3,136.2c-0.3,0-0.6,0.1-0.8,0.4
								c-0.3,0.4-0.2,1,0.2,1.3c0.4,0.3,1,0.2,1.3-0.2c0.3-0.4,0.2-1-0.2-1.3C234.7,136.2,234.5,136.2,234.3,136.2z M226.8,136.3
								c0,0-0.1,0-0.1,0c-0.3,0-0.5,0.3-0.5,0.6c0,0.3,0.3,0.5,0.6,0.4c0.3,0,0.5-0.3,0.5-0.6C227.2,136.5,227,136.3,226.8,136.3z
								 M225.8,137.5c-0.4,0-0.7,0.3-0.7,0.7c0,0.4,0.3,0.7,0.7,0.7c0.4,0,0.7-0.3,0.7-0.7C226.5,137.8,226.2,137.5,225.8,137.5z
								 M234.7,138.7c-0.3,0-0.6,0.1-0.8,0.3c-0.5,0.5-0.5,1.2,0,1.6c0.4,0.4,1.2,0.4,1.6,0c0.4-0.4,0.4-1.2,0-1.6
								C235.3,138.8,235,138.7,234.7,138.7z M224.4,138.8c-0.4,0-0.7,0.3-0.8,0.7c-0.1,0.4,0.2,0.8,0.7,0.9c0.4,0.1,0.8-0.2,0.9-0.7
								c0.1-0.4-0.2-0.8-0.7-0.9C224.5,138.8,224.5,138.8,224.4,138.8z M222.5,139.9c-0.4,0-0.7,0.3-0.8,0.7c-0.2,0.5,0.1,1,0.6,1.2
								c0.5,0.2,1-0.1,1.2-0.6c0.2-0.5-0.1-1-0.6-1.2C222.8,140,222.6,139.9,222.5,139.9z M220.2,141c-0.4,0-0.9,0.2-1.1,0.6
								c-0.3,0.6-0.1,1.3,0.5,1.5c0.6,0.3,1.3,0.1,1.5-0.5c0.3-0.6,0.1-1.3-0.5-1.5C220.5,141,220.4,141,220.2,141z M217.1,141.6
								c-0.4,0-0.9,0.2-1.1,0.6c-0.4,0.6-0.3,1.5,0.3,1.9c0.6,0.4,1.5,0.3,1.9-0.3c0.4-0.6,0.3-1.5-0.3-1.9
								C217.7,141.7,217.4,141.6,217.1,141.6z M234.5,141.6c-0.3,0-0.5,0.1-0.8,0.3c-0.6,0.4-0.7,1.3-0.3,1.9
								c0.4,0.6,1.3,0.7,1.9,0.3c0.6-0.4,0.7-1.3,0.3-1.9C235.4,141.8,234.9,141.6,234.5,141.6z"/>
							<path class="st5" d="M230.3,115.5c-0.5,0-1,0.4-1.2,0.9c-0.2,0.7,0.2,1.5,0.9,1.7c0.7,0.2,1.5-0.2,1.7-0.9
								c0.2-0.7-0.2-1.5-0.9-1.7C230.7,115.5,230.5,115.5,230.3,115.5z M227.7,117.5c-0.5,0-1,0.4-1.1,1c-0.1,0.6,0.3,1.2,1,1.3
								c0.6,0.1,1.2-0.3,1.3-1c0.1-0.6-0.3-1.2-1-1.3C227.9,117.5,227.8,117.5,227.7,117.5z M225.8,119.6c-0.5,0-1,0.4-1,1
								c0,0.5,0.4,1,1,1s1-0.4,1-1C226.8,120,226.4,119.6,225.8,119.6z M213.9,120.9c-0.4,0-0.9,0.2-1.2,0.6
								c-0.4,0.6-0.3,1.5,0.3,1.9c0.6,0.4,1.5,0.3,1.9-0.3c0.4-0.6,0.3-1.5-0.3-1.9C214.4,121,214.1,120.9,213.9,120.9z
								 M224.5,121.6c-0.1,0-0.1,0-0.2,0c-0.4,0.1-0.7,0.5-0.7,0.9c0.1,0.4,0.5,0.7,0.9,0.7c0.4-0.1,0.7-0.5,0.7-0.9
								C225.2,121.9,224.9,121.6,224.5,121.6z M223.7,123.5c-0.1,0-0.2,0-0.3,0c-0.3,0.1-0.5,0.5-0.4,0.8c0.1,0.3,0.5,0.5,0.8,0.4
								c0.3-0.1,0.5-0.5,0.4-0.8C224.1,123.7,223.9,123.5,223.7,123.5z M214.7,124.1c-0.4,0-0.9,0.2-1.1,0.6
								c-0.3,0.6-0.1,1.3,0.5,1.5c0.6,0.3,1.3,0.1,1.5-0.5c0.3-0.6,0.1-1.3-0.5-1.5C215,124.2,214.9,124.2,214.7,124.1z
								 M223.1,125.2c-0.1,0-0.1,0-0.2,0.1c-0.3,0.1-0.4,0.5-0.2,0.7c0.1,0.3,0.5,0.4,0.7,0.2c0.3-0.1,0.4-0.5,0.2-0.7
								C223.5,125.3,223.3,125.1,223.1,125.2z M231.6,126.1c-0.1,0-0.3,0-0.4,0.1c-0.3,0.2-0.4,0.6-0.1,0.9c0.2,0.3,0.6,0.4,0.9,0.1
								c0.3-0.2,0.4-0.6,0.1-0.9C232,126.2,231.8,126.1,231.6,126.1z M233.5,126.2c-0.1,0-0.2,0-0.3,0.1c-0.4,0.2-0.5,0.7-0.3,1.1
								c0.2,0.4,0.7,0.5,1.1,0.3s0.5-0.7,0.3-1.1C234.1,126.4,233.8,126.2,233.5,126.2z M230,126.2c-0.1,0-0.3,0.1-0.4,0.2
								c-0.2,0.2-0.2,0.6,0,0.8c0.2,0.2,0.6,0.2,0.8,0c0.2-0.2,0.2-0.6,0-0.8C230.3,126.3,230.1,126.2,230,126.2L230,126.2z
								 M215.8,126.8c-0.4,0-0.7,0.3-0.8,0.7c-0.2,0.5,0.1,1,0.6,1.2c0.5,0.2,1-0.1,1.2-0.6c0.2-0.5-0.1-1-0.6-1.2
								C216.1,126.8,215.9,126.8,215.8,126.8z M235.8,126.8c-0.1,0-0.3,0-0.4,0c-0.5,0.2-0.8,0.7-0.6,1.2c0.2,0.5,0.7,0.8,1.2,0.6
								c0.5-0.2,0.8-0.7,0.6-1.2C236.5,127.1,236.2,126.8,235.8,126.8z M238.3,127.9c-0.1,0-0.2,0-0.2,0c-0.6,0.1-1.1,0.7-1,1.3
								c0.1,0.6,0.7,1.1,1.3,1c0.6-0.1,1.1-0.7,1-1.3C239.2,128.3,238.8,127.9,238.3,127.9z M217.2,128.8c-0.4,0-0.7,0.3-0.8,0.7
								c-0.1,0.4,0.2,0.8,0.7,0.9c0.4,0.1,0.8-0.2,0.9-0.7c0.1-0.4-0.2-0.8-0.7-0.9C217.3,128.8,217.2,128.8,217.2,128.8z
								 M240.7,129.6c-0.8,0-1.4,0.6-1.4,1.4c0,0.8,0.6,1.4,1.4,1.4c0.7,0,1.4-0.6,1.4-1.4C242,130.2,241.4,129.6,240.7,129.6z
								 M218.6,130.3c-0.4,0-0.7,0.3-0.7,0.7c0,0.4,0.3,0.7,0.7,0.7c0.4,0,0.7-0.3,0.7-0.7C219.3,130.6,219,130.3,218.6,130.3z
								 M220,131.4c0,0-0.1,0-0.1,0c-0.3,0-0.5,0.3-0.5,0.6c0,0.3,0.3,0.5,0.6,0.5c0.3,0,0.5-0.3,0.4-0.6
								C220.5,131.6,220.3,131.4,220,131.4z M231.1,133.1c-0.2,0-0.4,0.1-0.5,0.3c-0.1,0.3,0,0.6,0.2,0.7c0.3,0.1,0.6,0,0.7-0.2
								c0.1-0.3,0-0.6-0.2-0.7C231.3,133.1,231.2,133.1,231.1,133.1z M231.7,134.5c-0.2,0-0.4,0.1-0.6,0.3c-0.2,0.3-0.1,0.7,0.1,0.9
								c0.3,0.2,0.7,0.1,0.9-0.2c0.2-0.3,0.2-0.7-0.1-0.9C231.9,134.6,231.8,134.5,231.7,134.5z M224.9,136.3
								c-0.3,0-0.5,0.2-0.5,0.5c0,0.3,0.2,0.6,0.5,0.6s0.6-0.2,0.6-0.5c0-0.3-0.2-0.6-0.5-0.6C224.9,136.3,224.9,136.3,224.9,136.3z
								 M232,136.3c-0.2,0-0.4,0.1-0.6,0.2c-0.3,0.3-0.3,0.8,0,1.1c0.3,0.3,0.8,0.3,1.1,0c0.3-0.3,0.3-0.8,0-1.1
								C232.4,136.4,232.2,136.3,232,136.3L232,136.3z M223.5,137.2c-0.3,0-0.5,0.2-0.6,0.5c-0.1,0.3,0.1,0.7,0.4,0.8
								c0.3,0.1,0.7-0.1,0.8-0.4c0.1-0.3-0.1-0.7-0.4-0.8C223.7,137.2,223.6,137.1,223.5,137.2z M221.9,137.9
								c-0.3,0-0.6,0.1-0.8,0.4c-0.2,0.4,0,0.9,0.4,1.1c0.4,0.2,0.9,0,1.1-0.3c0.2-0.4,0-0.9-0.3-1.1
								C222.1,138,222,137.9,221.9,137.9z M213.8,138.3c-0.3,0-0.5,0.1-0.8,0.3c-0.6,0.4-0.7,1.3-0.3,1.9c0.4,0.6,1.3,0.7,1.9,0.3
								c0.6-0.4,0.7-1.3,0.3-1.9C214.6,138.5,214.2,138.3,213.8,138.3z M219.7,138.5c-0.3,0-0.6,0.1-0.8,0.4c-0.3,0.4-0.2,1,0.2,1.3
								c0.4,0.3,1,0.2,1.3-0.2c0.3-0.4,0.2-1-0.2-1.3C220.1,138.5,219.9,138.5,219.7,138.5z M231.9,138.5c-0.2,0-0.4,0.1-0.5,0.2
								c-0.4,0.3-0.5,0.9-0.2,1.3c0.3,0.4,0.9,0.5,1.3,0.2c0.4-0.3,0.5-0.9,0.2-1.3C232.5,138.6,232.2,138.5,231.9,138.5z
								 M217,138.7c-0.3,0-0.6,0.1-0.8,0.3c-0.4,0.5-0.4,1.2,0,1.6c0.4,0.4,1.2,0.4,1.6,0c0.4-0.4,0.4-1.2,0-1.6
								C217.6,138.8,217.3,138.7,217,138.7z M231.4,141c-0.1,0-0.3,0.1-0.4,0.1c-0.6,0.3-0.8,1-0.5,1.5c0.3,0.6,1,0.8,1.5,0.5
								c0.6-0.3,0.8-1,0.5-1.5C232.3,141.2,231.9,141,231.4,141z M230.5,143.7c-0.2,0-0.4,0-0.5,0.1c-0.7,0.2-1.1,1-0.9,1.7
								c0.2,0.7,1,1.1,1.7,0.9c0.7-0.2,1.1-1,0.9-1.7C231.5,144.1,231.1,143.8,230.5,143.7z"/>
							<path class="st6" d="M221.4,115.5c-0.2,0-0.4,0-0.5,0.1c-0.7,0.2-1.1,1-0.9,1.7c0.2,0.7,1,1.1,1.7,0.9c0.7-0.2,1.1-1,0.9-1.7
								C222.4,115.9,221.9,115.5,221.4,115.5z M220.1,118.7c-0.1,0-0.3,0.1-0.4,0.1c-0.6,0.3-0.8,1-0.5,1.5c0.3,0.6,1,0.8,1.5,0.5
								c0.6-0.3,0.8-1,0.5-1.5C220.9,118.9,220.5,118.6,220.1,118.7z M237.8,120.9c-0.3,0-0.5,0.1-0.8,0.3c-0.6,0.4-0.7,1.3-0.3,1.9
								c0.4,0.6,1.3,0.7,1.9,0.3c0.6-0.4,0.7-1.3,0.3-1.9C238.7,121.1,238.2,120.9,237.8,120.9z M234.7,121c-0.3,0-0.6,0.1-0.8,0.3
								c-0.4,0.4-0.4,1.2,0,1.6c0.4,0.5,1.2,0.5,1.6,0c0.5-0.4,0.5-1.2,0-1.6C235.3,121.1,235,121,234.7,121z M232,121.6
								c-0.3,0-0.6,0.1-0.8,0.4c-0.3,0.4-0.2,1,0.2,1.3c0.4,0.3,1,0.2,1.3-0.2c0.3-0.4,0.2-1-0.2-1.3
								C232.4,121.6,232.2,121.6,232,121.6z M219.7,121.6c-0.2,0-0.4,0.1-0.5,0.2c-0.4,0.3-0.5,0.9-0.2,1.3c0.3,0.4,0.9,0.5,1.3,0.2
								c0.4-0.3,0.5-0.9,0.2-1.3C220.3,121.7,220,121.6,219.7,121.6z M229.8,122.4c-0.3,0-0.6,0.1-0.8,0.4c-0.2,0.4,0,0.9,0.3,1.1
								c0.4,0.2,0.9,0,1.1-0.3c0.2-0.4,0-0.9-0.4-1.1C230,122.5,229.9,122.4,229.8,122.4z M228,123.5c-0.3,0-0.5,0.2-0.6,0.5
								c-0.1,0.3,0.1,0.7,0.4,0.8c0.3,0.1,0.7-0.1,0.8-0.4c0.1-0.3-0.1-0.7-0.4-0.8C228.2,123.5,228.1,123.5,228,123.5z M219.7,124
								c-0.2,0-0.4,0.1-0.6,0.2c-0.3,0.3-0.3,0.8,0,1.1c0.3,0.3,0.8,0.3,1.1,0c0.3-0.3,0.3-0.8,0-1.1
								C220.1,124.1,219.9,124,219.7,124z M226.7,124.6c-0.3,0-0.5,0.2-0.5,0.5c0,0.3,0.2,0.6,0.5,0.6c0.3,0,0.6-0.2,0.6-0.5
								c0-0.3-0.2-0.6-0.5-0.6C226.8,124.6,226.8,124.6,226.7,124.6z M220,126.1c-0.2,0-0.4,0.1-0.6,0.3c-0.2,0.3-0.2,0.7,0.1,0.9
								c0.3,0.2,0.7,0.1,0.9-0.1c0.2-0.3,0.1-0.7-0.1-0.9C220.3,126.1,220.2,126.1,220,126.1z M220.6,127.7c-0.2,0-0.4,0.1-0.5,0.3
								c-0.1,0.3,0,0.6,0.2,0.7c0.3,0.1,0.6,0,0.7-0.2c0.1-0.3,0-0.6-0.2-0.7C220.7,127.8,220.7,127.8,220.6,127.7z M231.7,129.5
								c0,0-0.1,0-0.1,0c-0.3,0-0.5,0.3-0.5,0.6c0,0.3,0.3,0.5,0.6,0.4c0.3,0,0.5-0.3,0.5-0.6C232.2,129.7,231.9,129.5,231.7,129.5z
								 M211,129.6c-0.8,0-1.4,0.6-1.4,1.4c0,0.8,0.6,1.4,1.4,1.4s1.4-0.6,1.4-1.4C212.3,130.2,211.7,129.6,211,129.6z M233,130.3
								c-0.4,0-0.7,0.3-0.7,0.7c0,0.4,0.3,0.7,0.7,0.7c0.4,0,0.7-0.3,0.7-0.7C233.7,130.6,233.4,130.3,233,130.3z M234.4,131.5
								c-0.4,0-0.7,0.3-0.8,0.7c-0.1,0.4,0.2,0.8,0.7,0.9c0.4,0.1,0.8-0.2,0.9-0.7c0.1-0.4-0.2-0.8-0.7-0.9
								C234.5,131.5,234.4,131.5,234.4,131.5z M213.5,131.8c-0.1,0-0.2,0-0.2,0c-0.6,0.1-1.1,0.7-1,1.3s0.7,1.1,1.3,1
								c0.6-0.1,1.1-0.7,1-1.3C214.5,132.2,214,131.8,213.5,131.8z M216,133.2c-0.1,0-0.3,0-0.4,0c-0.5,0.2-0.8,0.7-0.6,1.2
								c0.2,0.5,0.7,0.8,1.2,0.6c0.5-0.2,0.8-0.7,0.6-1.2C216.7,133.5,216.3,133.3,216,133.2z M235.7,133.2c-0.4,0-0.7,0.3-0.8,0.7
								c-0.2,0.5,0.1,1,0.6,1.2c0.5,0.2,1-0.1,1.2-0.6c0.2-0.5-0.1-1-0.6-1.2C235.9,133.3,235.8,133.2,235.7,133.2z M218,134.1
								c-0.1,0-0.2,0-0.3,0.1c-0.4,0.2-0.5,0.7-0.3,1.1c0.2,0.4,0.7,0.5,1.1,0.4c0.4-0.2,0.5-0.7,0.3-1.1
								C218.6,134.3,218.3,134.1,218,134.1z M220,134.5c-0.1,0-0.3,0-0.4,0.1c-0.3,0.2-0.4,0.6-0.1,0.9c0.2,0.3,0.6,0.4,0.9,0.2
								c0.3-0.2,0.4-0.6,0.1-0.9C220.4,134.6,220.2,134.5,220,134.5z M221.6,134.6c-0.1,0-0.3,0.1-0.4,0.2c-0.2,0.2-0.2,0.6,0,0.8
								s0.6,0.2,0.8,0c0.2-0.2,0.2-0.6,0-0.8C221.9,134.7,221.8,134.6,221.6,134.6z M237.1,135.5c-0.4,0-0.9,0.2-1.1,0.6
								c-0.3,0.6-0.1,1.3,0.5,1.5c0.6,0.3,1.3,0.1,1.5-0.5c0.3-0.6,0.1-1.3-0.5-1.5C237.4,135.6,237.2,135.5,237.1,135.5z
								 M228.5,135.7c-0.1,0-0.1,0-0.2,0.1c-0.3,0.1-0.4,0.5-0.2,0.7c0.1,0.3,0.5,0.4,0.7,0.2c0.3-0.1,0.4-0.5,0.2-0.7
								C228.9,135.8,228.7,135.7,228.5,135.7z M228.1,137.2c-0.1,0-0.2,0-0.3,0c-0.3,0.1-0.5,0.5-0.4,0.8c0.1,0.3,0.5,0.5,0.8,0.4
								c0.3-0.1,0.5-0.5,0.4-0.8C228.6,137.4,228.4,137.2,228.1,137.2z M237.9,138.3c-0.4,0-0.9,0.2-1.1,0.6
								c-0.4,0.6-0.3,1.5,0.3,1.9c0.6,0.4,1.5,0.3,1.9-0.3c0.4-0.6,0.3-1.5-0.3-1.9C238.4,138.4,238.1,138.3,237.9,138.3z
								 M227.2,138.8c-0.1,0-0.1,0-0.2,0c-0.4,0.1-0.7,0.5-0.7,0.9c0.1,0.4,0.5,0.7,0.9,0.7c0.4-0.1,0.7-0.5,0.7-0.9
								C227.9,139.1,227.6,138.8,227.2,138.8z M225.8,140.5c-0.5,0-1,0.4-1,1s0.4,1,1,1s1-0.4,1-1S226.4,140.5,225.8,140.5z
								 M223.8,142.2c-0.5,0-1,0.4-1.1,1c-0.1,0.6,0.3,1.2,1,1.3c0.6,0.1,1.2-0.3,1.3-1c0.1-0.6-0.3-1.2-1-1.3
								C224,142.2,223.9,142.2,223.8,142.2z M221.1,143.7c-0.5,0-1,0.4-1.2,0.9c-0.2,0.7,0.2,1.5,0.9,1.7c0.7,0.2,1.5-0.2,1.7-0.9
								c0.2-0.7-0.2-1.5-0.9-1.7C221.5,143.7,221.3,143.7,221.1,143.7z"/>
						</g>
						<path class="st3" d="M156.5,76.5c-0.4,0-0.7,0.3-0.7,0.7c0,0.4,0.3,0.7,0.7,0.7c0.4,0,0.7-0.3,0.7-0.7
							C157.2,76.8,156.9,76.5,156.5,76.5z M154.4,76.7c-1.1,0-1.7,0.8-1.7,1.8v1.3h-0.9v0.7h0.9v5.9h1v-5.9h1.4v-0.7h-1.4v-1.2
							c0-0.6,0.3-1,0.9-1h0.5v-0.8C155.1,76.7,154.4,76.7,154.4,76.7z M171.3,76.7v9.6h1.8v-4.3c0-0.9,0.6-1.2,1.1-1.2
							s1.2,0.3,1.2,1.2v4.3h1.8v-4.6c0-1.5-0.8-2.6-2.4-2.6c-0.6,0-1.2,0.2-1.7,0.7v-3.2H171.3z M167.6,79.2c-1.4,0-2.7,0.8-2.7,2.2
							c0,1.3,0.8,1.9,2.1,2l1.1,0.1c0.6,0.1,0.7,0.3,0.7,0.7c0,0.5-0.6,0.7-1.2,0.7c-0.5,0-1.3-0.1-1.9-0.7l-1.2,1.2
							c0.9,0.9,1.9,1,3,1c1.7,0,3-0.7,3-2.3c0-1.2-0.7-1.9-2.1-2.1l-1.1-0.1c-0.6-0.1-0.7-0.3-0.7-0.6c0-0.3,0.3-0.7,1-0.7
							c0.6,0,1.2,0.1,1.6,0.5l1.1-1.1C169.6,79.4,168.7,79.2,167.6,79.2z M180.7,79.2c-1.2,0-1.9,0.2-2.5,1l1.1,1.1
							c0.4-0.4,0.7-0.6,1.4-0.6c0.9,0,1.3,0.3,1.3,1.1v0.3h-1.7c-1.6,0-2.4,0.9-2.4,2c0,0.6,0.2,1.2,0.6,1.6c0.4,0.4,1,0.6,1.8,0.6
							c0.8,0,1.3-0.2,1.7-0.7v0.6h1.7v-4.6C183.7,80.1,182.7,79.2,180.7,79.2z M188.4,79.2c-0.8,0-1.4,0.4-1.8,0.8v-0.7h-1.7v7.1
							h1.8v-4.2c0-0.9,0.6-1.3,1.1-1.3c0.4,0,0.7,0.1,0.9,0.4l1.3-1.3C189.6,79.4,189.1,79.2,188.4,79.2L188.4,79.2z M192.7,79.2
							c-1.8,0-3.1,1.3-3.1,3.6c0,2.9,1.6,3.6,3.3,3.6c1.3,0,2-0.4,2.7-1.1l-1.1-1c-0.4,0.4-0.8,0.7-1.6,0.7c-1,0-1.5-0.7-1.5-1.6
							h4.4v-0.8C195.8,80.7,194.6,79.2,192.7,79.2z M160.9,79.6c-0.7,0-1.3,0.2-1.6,0.6c-0.7,0.7-0.8,1.7-0.8,2.8s0.1,2.1,0.8,2.8
							c0.4,0.3,0.9,0.6,1.6,0.6c0.7,0,1.3-0.2,1.9-0.9v1c0,1.1-0.5,2-1.8,2c-0.8,0-1.1-0.2-1.6-0.7l-0.6,0.6
							c0.7,0.6,1.3,0.9,2.3,0.9c1.7,0,2.8-1.2,2.8-2.9v-6.9h-1v0.8C162.2,79.8,161.6,79.6,160.9,79.6z M156,79.7v6.7h1v-6.7H156z
							 M161.1,80.5c1.4,0,1.7,1.2,1.7,2.5c0,1.2-0.2,2.5-1.7,2.5c-1.4,0-1.7-1.2-1.7-2.5C159.4,81.7,159.6,80.5,161.1,80.5z
							 M192.7,80.7c0.6,0,1,0.3,1.2,0.7c0.1,0.3,0.1,0.4,0.2,0.8h-2.7c0-0.3,0.1-0.5,0.2-0.8C191.7,81,192.1,80.7,192.7,80.7z
							 M180.5,83.4h1.4v0.4c0,0.4-0.1,0.7-0.3,0.9c-0.3,0.3-0.6,0.3-1.1,0.3c-0.7,0-1-0.3-1-0.8C179.5,83.7,179.9,83.4,180.5,83.4z"
							/>
					</g>
				</g>
				<g>
					<g>
						<path class="st7" d="M103.5,92.6c-2.1,0-3.8-1-4.5-2.6c-0.7-1.7-0.5-3.4,0.7-4.8c1.2-1.4,3.1-1.9,4.8-1.3
							c0.5,0.2,0.8,0.1,1.1-0.4c0.3-0.6,0.5-1-0.1-1.6c-1.1-1.4-0.6-3.4,1-4.2c0.3-0.2,0.5-0.3,0.3-0.7c-0.1-0.1-0.1-0.3-0.1-0.5
							c-0.1-0.7-0.2-1.3-1.2-1.5c-0.8-0.2-1.3-1.1-1.2-2c0.1-0.8,0.7-1.5,1.6-1.7c0.9-0.2,1.7,0.2,2.2,1c0.4,0.8,0.4,1.8-0.3,2.3
							c-0.5,0.4-0.5,0.7-0.3,1.2c0,0.1,0.1,0.3,0.1,0.4c0.1,0.7,0.3,1.1,1.2,1.3c1.4,0.3,2.2,1.8,2,3.2c-0.3,1.4-1.5,2.5-3,2.4
							c-0.8-0.1-1,0.2-1.4,0.8c-0.3,0.5-0.4,0.8,0.1,1.4c1.3,1.4,1.5,3.1,0.7,4.8C106.5,91.6,105.1,92.5,103.5,92.6z M99.4,88.1
							c0,2,1.7,3.6,3.7,3.6c2,0,3.6-1.7,3.6-3.7c0-2-1.7-3.6-3.7-3.6C101,84.5,99.4,86.1,99.4,88.1z M109.9,80.1c0-1.1-0.9-2-2-2
							c-1.1,0-2,0.9-2,2.1c0,1.1,0.9,2,2,2C108.9,82.2,109.9,81.2,109.9,80.1z M105,73.1c0,0.8,0.6,1.4,1.3,1.4
							c0.7,0,1.4-0.6,1.3-1.4c0-0.7-0.6-1.3-1.3-1.3C105.6,71.8,105,72.4,105,73.1z"/>
						<path class="st7" d="M52.3,81.9c0,0.7,0.1,1.5-0.1,2.2c-0.3,1.5-1.1,2.2-2.5,2.4c-0.9,0.1-1.8,0.1-2.6,0.1
							c-0.2,0-0.5,0.1-0.5-0.2c0-0.3-0.3-0.7,0.2-0.9c0.4-0.1,0.4-0.4,0.4-0.7c0-1.8-0.1-3.6-0.1-5.5c0-0.3,0-0.6-0.3-0.6
							c-0.6-0.1-0.4-0.6-0.4-0.9c0-0.5,0.5-0.3,0.7-0.3c0.9,0,1.8-0.1,2.8,0c1.2,0.2,1.9,0.8,2.2,2c0.1,0.2,0.1,0.5,0.1,0.8
							C52.3,80.8,52.3,81.4,52.3,81.9z M49,81.9c0,0.9,0,1.9,0.1,2.8c0,0.2-0.1,0.5,0.2,0.6c0.3,0.1,0.7,0,1-0.2
							c0.2-0.2,0.3-0.4,0.3-0.7c0.1-1.7,0.1-3.3-0.1-5c0-0.3-0.1-0.5-0.3-0.7c-0.3-0.2-0.6-0.3-0.9-0.2C48.8,78.6,49,79,49,79.2
							C49,80.1,49,81,49,81.9z"/>
						<path class="st7" d="M65.4,80.2c0.7,0.2,1,0.6,0.8,1.3c-0.1,0.5-0.7,0.7-1.3,0.6c-0.5-0.2-0.8-0.7-0.7-1.3
							c0-0.2,0.1-0.4,0.2-0.5c0.5-0.9,1.8-1.3,3.1-1c0.9,0.2,1.4,0.8,1.4,1.9c0,1.2,0,2.4,0.1,3.7c0,0.2-0.1,0.5,0.2,0.5
							c0.2,0,0.2-0.3,0.2-0.5c0-0.3-0.1-0.6,0.4-0.6c0.5,0,0.3,0.4,0.3,0.6c0,1.3-1,2.2-1.8,1.5c-0.8-0.6-1.1-0.3-1.8,0
							c-0.8,0.4-1.7,0-2.1-0.6c-0.4-0.7-0.3-1.8,0.3-2.4c0.3-0.3,0.7-0.5,1-0.7c0.3-0.2,0.6-0.3,0.9-0.5c0.7-0.4,0.9-1.1,0.6-1.6
							C66.9,80,66.3,79.9,65.4,80.2z M67.3,82.7c-0.6,0.5-1.2,0.7-1.4,1.4c-0.1,0.4-0.1,0.8,0.4,1c0.5,0.2,0.8-0.1,0.9-0.6
							C67.4,84,67.3,83.4,67.3,82.7z"/>
						<path class="st7" d="M56.6,85.8c-0.3,0.3-0.5,0.6-0.8,0.7C55,86.8,54,86.6,53.5,86c-0.5-0.7-0.4-1.9,0.3-2.5
							c0.5-0.5,1.2-0.7,1.8-1.1c0.3-0.2,0.7-0.4,0.8-0.8c0.1-0.4,0.1-0.8-0.2-1.2c-0.5-0.4-1-0.3-1.5-0.1c0,0.2,0.1,0.2,0.2,0.2
							c0.5,0.2,0.6,0.6,0.5,1.1c-0.1,0.5-0.5,0.7-0.9,0.7c-0.5,0-0.8-0.2-1-0.7c-0.2-0.8,0.2-1.7,1-2c0.8-0.4,1.6-0.4,2.4-0.1
							c0.7,0.3,1.1,0.8,1.1,1.6c0,1.2,0,2.4,0.1,3.7c0,0.2,0,0.4,0,0.5c0,0.1,0.1,0.2,0.2,0.2c0.1,0,0.1-0.1,0.2-0.2
							c0,0,0-0.1,0-0.1c0.1-0.3-0.2-0.8,0.4-0.7c0.5,0.1,0.2,0.5,0.2,0.8c0,0.6-0.2,1.2-0.9,1.4C57.6,86.7,57.1,86.5,56.6,85.8z
							 M56.4,82.9c-0.6,0.5-1.1,0.7-1.4,1.3c-0.2,0.4-0.2,0.9,0.3,1.1c0.5,0.2,0.8-0.1,1-0.6C56.5,84.1,56.4,83.6,56.4,82.9z"/>
						<path class="st7" d="M78.9,82.8c-0.1,0-0.2,0-0.3,0c-0.4,0.1-1-0.2-1.1,0.2c-0.1,0.6-0.1,1.4,0.4,1.9c0.4,0.4,0.9,0.3,1.2-0.2
							c0.1-0.2,0.2-0.5,0.2-0.8c0-0.7,0.4-0.9,1-0.7c0.2,0.1,0.2,0.2,0.2,0.3c0.2,1.2-0.4,2.4-1.4,2.6c-1.4,0.4-2.6-0.1-3-1.4
							c-0.5-1.5-0.6-3,0-4.5c0.4-1,1.2-1.4,2.3-1.3c1,0.1,1.6,0.6,1.9,1.7c0.2,0.6,0.1,1.2,0.2,1.8c0,0.3-0.2,0.4-0.4,0.4
							C79.7,82.8,79.3,82.8,78.9,82.8z M78.8,81.2c0-0.2,0-0.4,0-0.6c0-0.4-0.1-0.7-0.6-0.8c-0.4,0-0.6,0.3-0.7,0.7
							c0,0.2,0,0.4-0.1,0.5c0,0.4-0.1,0.8,0.5,0.7C78.4,81.7,79.1,82.1,78.8,81.2z"/>
						<path class="st7" d="M91.5,82.4c0-0.7,0-1.4,0.3-2c0.4-1.1,1.3-1.7,2.4-1.7c1.1,0.1,1.8,0.8,2,2c0.3,1.8,0.3,1.9-1.5,1.9
							c-0.1,0-0.1,0-0.2,0c-0.4,0.1-1-0.2-1.1,0.2c-0.2,0.6-0.1,1.3,0.3,1.8c0.4,0.5,1,0.3,1.2-0.2C95,84.2,95,84,95,83.7
							c0-0.7,0.3-0.9,1-0.7c0.2,0,0.2,0.1,0.2,0.3c0.2,1.1-0.3,2.3-1.2,2.6c-1.3,0.4-2.6,0-3.1-1.2C91.6,84,91.5,83.2,91.5,82.4z
							 M93.9,81.5c0.3,0,0.7,0.1,0.7-0.5c0-1-0.3-1.5-0.7-1.4c-0.8,0.2-0.6,0.9-0.7,1.5C93.1,81.8,93.7,81.5,93.9,81.5z"/>
						<path class="st7" d="M86.2,84.5c0-0.3,0-0.6,0-0.8c0-0.2-0.1-0.5,0.3-0.5c0.3,0,0.6,0,0.7,0.4c0.1,0.6,0.4,1.2,1,1.5
							c0.4,0.2,0.8,0.2,1-0.2c0.2-0.4,0.1-0.8-0.2-1c-0.5-0.4-1.1-0.7-1.7-1.1c-0.9-0.5-1.2-1.3-1.1-2.2c0.1-1.4,1.5-2.2,2.7-1.6
							c0.3,0.1,0.5,0.4,0.9,0.1c0.3-0.2,0.7-0.2,0.7,0.5c0,0.5,0,1,0,1.5c0,0.2,0.1,0.5-0.3,0.5c-0.3,0-0.6,0-0.7-0.4
							c-0.1-0.5-0.3-0.9-0.8-1.2c-0.4-0.2-0.8-0.3-1,0.1c-0.3,0.4,0,0.7,0.3,1c0.5,0.4,1.1,0.7,1.7,1c0.8,0.5,1.2,1.2,1.2,2
							c0,1.7-1.5,2.6-3,1.8c-0.3-0.2-0.5-0.3-0.8,0c-0.3,0.3-0.8,0.1-0.8-0.4C86.2,85.1,86.2,84.8,86.2,84.5z"/>
						<path class="st7" d="M73,83.8c0.2-1,0.4-2.1,0.6-3.1c0-0.2,0.1-0.5-0.3-0.5c-0.4-0.1-0.2-0.5-0.2-0.8c0-0.3,0.3-0.2,0.5-0.2
							c0.3,0,0.7,0,1,0c0.2,0,0.5-0.1,0.5,0.2c0,0.3,0.2,0.6-0.1,0.8c-0.3,0.2-0.4,0.6-0.4,0.9c-0.4,1.5-0.7,3-1,4.5
							c-0.1,0.6-0.4,0.7-0.9,0.7c-0.5,0-0.8,0-0.9-0.6c-0.4-1.5-0.8-3-1.2-4.5c-0.1-0.3-0.1-0.7-0.5-0.9c-0.3-0.1-0.1-0.5-0.1-0.7
							c0-0.3,0.3-0.2,0.5-0.2c0.6,0,1.2,0,1.9,0c0.2,0,0.4-0.1,0.4,0.2c0,0.3,0.2,0.6-0.1,0.7c-0.5,0.2-0.3,0.5-0.3,0.8
							c0.2,1,0.4,1.9,0.6,2.9C72.9,83.8,73,83.8,73,83.8z"/>
						<path class="st7" d="M60.2,83c0-0.7,0-1.5,0-2.2c0-0.3,0-0.5-0.4-0.4c-0.3,0-0.4-0.1-0.3-0.4c0-0.2-0.1-0.5,0.2-0.6
							c0.7-0.1,1-0.6,1-1.2c0-0.5,0.3-0.6,0.7-0.6c0.6,0,0.3,0.4,0.4,0.7c0,0.1,0,0.2,0,0.3c-0.1,0.6,0.1,0.9,0.8,0.8
							c0.3-0.1,0.5,0.1,0.5,0.4c0,0.4-0.1,0.6-0.5,0.5c-0.7-0.1-0.7,0.2-0.7,0.8c0.1,1.2,0,2.4,0.1,3.7c0,0.3-0.2,0.7,0.3,0.7
							c0.4,0,0.2-0.4,0.3-0.7c0-0.1,0-0.3,0-0.4c0-0.3,0.2-0.2,0.4-0.2c0.2,0,0.3,0,0.4,0.3c0.3,1.4-0.5,2.3-2,2.1
							c-0.7-0.1-1.1-0.5-1.1-1.2C60.2,84.5,60.3,83.8,60.2,83C60.2,83,60.2,83,60.2,83z"/>
						<path class="st7" d="M84.5,79.7c-0.5-0.1-0.8,0.1-0.9,0.5c-0.1,0.3-0.1,0.5-0.1,0.8c0,1.1,0,2.2,0,3.3c0,0.3,0,0.6,0.4,0.6
							c0.5,0,0.4,0.3,0.4,0.6c0,0.5-0.3,0.3-0.6,0.4c-0.7,0-1.4,0-2.1,0c-0.2,0-0.5,0.1-0.5-0.2c0-0.2-0.2-0.6,0.2-0.7
							c0.4-0.1,0.4-0.4,0.4-0.7c0-1.2,0-2.5-0.1-3.7c0-0.3,0-0.5-0.4-0.6c-0.4-0.1-0.2-0.4-0.2-0.7c0-0.3,0.3-0.3,0.5-0.2
							c0.5,0.1,1.2-0.4,1.6,0.3c0.1,0.1,0.2-0.1,0.3-0.2c0.7-0.4,1.2-0.3,1.6,0.1c0.4,0.4,0.5,1.4,0.1,1.9c-0.3,0.4-0.8,0.5-1.2,0.2
							c-0.4-0.3-0.4-0.8-0.2-1.2C84.1,80,84.3,79.9,84.5,79.7z"/>
						<path class="st8" d="M80,89.8c0-0.3,0-0.6,0-1c-0.1-0.6,0.1-1,0.8-1c0.8-0.1,1.5,0.3,1.7,0.9c0.1,0.5-0.2,1.2-0.7,1.4
							c0,0,0,0-0.1,0c-0.9,0-1.2,0.4-1.1,1.3c0,0.2-0.1,0.3-0.3,0.3c-0.3,0-0.3-0.2-0.3-0.4C80,90.9,80,90.4,80,89.8z M80.6,89.1
							c0.1,0.3-0.2,0.7,0.4,0.7c0.5,0,1-0.4,0.9-0.8c0-0.5-0.4-0.7-0.9-0.7C80.4,88.3,80.6,88.8,80.6,89.1z"/>
						<path class="st8" d="M87.4,90.3c0,0.9-0.5,1.4-1.4,1.4c-0.8,0-1.4-0.6-1.3-1.4c0-0.9,0.6-1.5,1.4-1.5
							C86.9,88.8,87.4,89.4,87.4,90.3z M86.8,90.5c0-0.7-0.2-1.1-0.8-1.2c-0.5-0.1-0.8,0.4-0.8,1.1c0,0.5,0.2,0.9,0.8,1
							C86.5,91.4,86.8,90.9,86.8,90.5z"/>
						<path class="st8" d="M90.9,91.7c-0.8,0.1-1.3-0.1-1.5-0.7c-0.2-0.6-0.2-1.3,0.3-1.8c0.4-0.4,0.8-0.5,1.3-0.3
							c0.5,0.1,0.7,0.5,0.8,1c0.1,0.4,0,0.6-0.4,0.6c-0.3,0-0.7,0-1,0c-0.1,0-0.3,0-0.4,0.1c-0.1,0.2,0,0.3,0.1,0.4
							c0.3,0.3,0.6,0.3,1,0.3c0.2,0,0.4-0.3,0.5,0.1c0,0.3-0.3,0.3-0.5,0.3C90.9,91.7,90.8,91.7,90.9,91.7z M89.9,89.7
							c0,0.3,0.3,0.3,0.5,0.2c0.3-0.1,0.8,0.2,0.8-0.3c0-0.3-0.3-0.5-0.6-0.5C90.2,89.2,90,89.4,89.9,89.7z"/>
						<path class="st8" d="M49.3,73.9c0-0.5,0-0.9,0-1.4c0-0.2,0-0.4,0.3-0.4c0.3,0,0.3,0.2,0.3,0.4c0,0.1,0,0.3,0,0.4
							c0,0.3,0.1,0.3,0.4,0.3c0.9-0.1,1.2,0.1,1.2,1.1c0,0.3,0,0.6,0,0.9c0,0.2,0.1,0.5-0.2,0.5c-0.3,0-0.2-0.3-0.2-0.4
							c0-0.3,0-0.6,0-1c0-0.3-0.1-0.7-0.6-0.6c-0.4,0-0.5,0.3-0.5,0.7c0,0.3,0,0.7,0,1c0,0.2,0,0.3-0.2,0.3c-0.3,0-0.3-0.2-0.3-0.4
							C49.3,74.9,49.3,74.4,49.3,73.9z"/>
						<path class="st8" d="M52,74.5c0-0.7,0.4-1.2,0.9-1.3c0.5-0.1,1,0,1.2,0.5c0.2,0.6,0.1,0.8-0.5,0.8c-0.2,0-0.3,0-0.5,0
							c-0.2,0-0.5-0.1-0.5,0.2c0,0.3,0.2,0.4,0.5,0.5c0.2,0,0.3,0.1,0.5,0c0.2-0.1,0.5-0.2,0.5,0.1c0,0.3-0.3,0.2-0.5,0.3
							C52.7,75.9,52,75.4,52,74.5z M53.1,74.2c0.2-0.1,0.5,0.1,0.5-0.3c0-0.3-0.3-0.4-0.5-0.4c-0.2,0-0.5,0.2-0.5,0.4
							C52.6,74.3,52.9,74.1,53.1,74.2z"/>
						<path class="st7" d="M98.5,79.8c-0.8,0-1.4-0.5-1.4-1.3c0-0.8,0.6-1.4,1.4-1.4c0.8,0,1.4,0.6,1.4,1.3
							C99.8,79.1,99.3,79.7,98.5,79.8z M99.1,79.1c0.5-0.4,0.5-0.9,0.1-1.4c-0.4-0.4-1-0.4-1.4,0c-0.4,0.4-0.4,1.1,0.1,1.5
							C98.2,79.6,98.7,79.6,99.1,79.1L99.1,79.1z"/>
						<path class="st8" d="M92.2,90.2c0-1,0.8-1.6,1.7-1.5c0.2,0,0.4,0,0.4,0.3c0,0.3-0.3,0.2-0.5,0.2c-0.9,0-1.2,0.4-1.1,1.1
							c0.1,0.6,0.5,0.9,1.1,0.8c0.2,0,0.4-0.2,0.4,0.1c0,0.3-0.2,0.3-0.4,0.3C92.8,91.8,92.2,91.3,92.2,90.2z"/>
						<path class="st8" d="M47.4,74.2c0-0.2,0-0.5,0-0.7c0-0.5,0-0.9-0.7-0.8c-0.1,0-0.3,0-0.3-0.2c0-0.2,0.2-0.2,0.3-0.2
							c0.6,0,1.2,0,1.9,0c0.2,0,0.4,0,0.4,0.2c0,0.2-0.2,0.2-0.4,0.2c-0.6-0.1-0.7,0.2-0.7,0.8c0.1,0.6,0,1.2,0,1.9
							c0,0.2,0,0.4-0.3,0.4c-0.3,0-0.2-0.2-0.2-0.4C47.4,75,47.4,74.6,47.4,74.2z"/>
						<path class="st8" d="M96,91.6c-0.6,0.1-0.8-0.3-0.8-0.7c0-0.4,0-0.8,0-1.2c0-0.2,0.1-0.4-0.1-0.4c-0.5-0.2-0.3-0.3,0-0.7
							c0.3-0.4,0.5-0.9,0.7,0c0,0.1,0.2,0.1,0.2,0.1c0.2,0,0.3,0,0.4,0.2c0,0.3-0.2,0.3-0.4,0.3c-0.2,0-0.3,0.1-0.3,0.3
							c0,0.4,0,0.8,0,1.2c0,0.2,0.1,0.4,0.3,0.4c0.1,0,0.4,0,0.3,0.2C96.3,91.6,96.1,91.6,96,91.6z"/>
						<path class="st8" d="M88.6,90.6c0,0.5,0,0.9,0,1.4c0,0.5-0.3,0.8-0.9,0.9c-0.1,0-0.2,0-0.3-0.1c-0.1-0.2,0-0.3,0.2-0.3
							c0.5-0.1,0.5-0.5,0.5-0.9c0-0.7,0-1.5,0-2.2c0-0.2,0-0.5,0.3-0.5c0.3,0,0.2,0.3,0.3,0.5C88.6,89.7,88.6,90.1,88.6,90.6
							C88.6,90.6,88.6,90.6,88.6,90.6z"/>
						<path class="st8" d="M83.3,88.9c0.3,0.6,0.5,0,0.8,0c0.1,0,0.2,0,0.3,0.1c0.1,0.1,0.1,0.3-0.1,0.4c-0.9,0.2-0.7,0.9-0.7,1.6
							c0,0.2,0,0.3,0,0.5c0,0.2,0,0.4-0.3,0.4c-0.2,0-0.2-0.2-0.2-0.3c0-0.7,0-1.5-0.1-2.2C82.9,89,83.1,88.9,83.3,88.9z"/>
						<path class="st8" d="M88.3,87.8c0.2,0,0.3,0.1,0.3,0.3c0,0.2-0.1,0.3-0.3,0.4c-0.2,0-0.3-0.1-0.3-0.3
							C88,87.9,88.1,87.8,88.3,87.8z"/>
						<path class="st7" d="M99.1,79.1c-0.2,0-0.3,0.1-0.4-0.1c-0.2-0.3-0.3-0.7-0.4,0c0,0.2-0.2,0.2-0.2,0.1c-0.2-0.4-0.2-0.8,0-1.2
							c0.1-0.3,0.5-0.2,0.8-0.1c0.2,0.1,0.3,0.2,0.2,0.4C98.8,78.5,99.1,78.8,99.1,79.1L99.1,79.1z"/>
					</g>
				</g>
				<g>
					<g>
						<path class="st9" d="M192,127.3c-0.3-0.6-0.6-1.1-1.1-1.6c-0.5-0.5-1-0.8-1.6-1.1c-0.6-0.3-1.3-0.4-1.9-0.4
							c-0.7,0-1.4,0.1-2,0.4c-0.3,0.1-0.6,0.3-0.8,0.5c-0.3,0.2-0.5,0.4-0.7,0.6c-0.1,0.1-0.3,0.3-0.4,0.4c-0.1,0.2-0.3,0.4-0.4,0.5
							c-0.1,0.2-0.4,0.7-0.5,1.1c0-0.6,0.1-1.6,0.5-2.1v-4.5c0-0.3-0.1-0.5-0.3-0.7c-0.2-0.2-0.5-0.3-0.7-0.3
							c-0.3,0-0.5,0.1-0.8,0.3c-0.2,0.2-0.3,0.5-0.3,0.7v4c-0.4-0.3-0.9-0.5-1.4-0.7c-0.5-0.2-1-0.2-1.5-0.2c-0.7,0-1.3,0.1-1.9,0.4
							c-0.6,0.3-1.1,0.6-1.6,1.1c-0.5,0.5-0.8,1-1.1,1.6c0,0,0,0.1-0.1,0.1c0,0,0-0.1-0.1-0.1c-0.3-0.6-0.6-1.1-1.1-1.6
							c-0.5-0.5-1-0.8-1.6-1.1c-0.6-0.3-1.3-0.4-1.9-0.4c-0.7,0-1.4,0.1-2,0.4c-0.6,0.3-1.1,0.6-1.6,1.1c-0.5,0.5-0.8,1-1.1,1.6
							c0,0,0,0.1-0.1,0.1c0,0,0-0.1-0.1-0.1c-0.3-0.6-0.6-1.1-1.1-1.6c-0.5-0.5-1-0.8-1.6-1.1c-0.6-0.3-1.3-0.4-1.9-0.4
							c-0.7,0-1.4,0.1-2,0.4c-0.6,0.3-1.1,0.6-1.6,1.1c-0.5,0.5-0.8,1-1.1,1.6c0,0,0,0.1,0,0.1c0,0,0-0.1,0-0.1
							c-0.3-0.6-0.6-1.1-1.1-1.6c-0.5-0.5-1-0.8-1.6-1.1c-0.6-0.3-1.3-0.4-1.9-0.4c-0.7,0-1.4,0.1-2,0.4c-0.6,0.2-1.1,0.6-1.5,1
							v-0.2c0-0.6-0.5-1.1-1.1-1.1h-7.5c-0.6,0-1.1,0.5-1.1,1.1s0.5,1.1,1.1,1.1h5.9l-7,9.4c-0.1,0.2-0.2,0.4-0.2,0.6v0.7
							c0,0.6,0.5,1.1,1.1,1.1h8c0.6,0,1-0.4,1.1-1c0.4,0.3,0.8,0.5,1.2,0.7c0.6,0.3,1.3,0.4,1.9,0.4c1,0,2-0.3,2.8-0.8
							c0.7-0.4,1.2-1,1.6-1.7v1.5c0,0.3,0.1,0.5,0.3,0.8c0.2,0.2,0.5,0.3,0.7,0.3c0.3,0,0.5-0.1,0.7-0.3c0.2-0.2,0.3-0.5,0.3-0.8
							v-3.8h0c0,0,0,0,0,0s-2.3,0-2.6,0c-0.2,0-0.4,0.1-0.6,0.2c-0.2,0.1-0.3,0.3-0.4,0.5l-0.2,0.4c-0.2,0.5-0.6,0.9-1.1,1.2
							c-0.5,0.3-1,0.5-1.6,0.5c-0.4,0-0.8-0.1-1.1-0.2c-0.4-0.1-0.7-0.4-0.9-0.6c-0.3-0.3-0.5-0.6-0.6-0.9c-0.2-0.4-0.2-0.7-0.2-1.1
							v-0.9h6.8h0.5h2.1v-3.2c0-0.4,0.1-0.8,0.2-1.1c0.1-0.4,0.4-0.7,0.6-0.9c0.3-0.3,0.6-0.5,0.9-0.6c0.3-0.1,0.7-0.2,1.1-0.2
							c0.4,0,0.8,0.1,1.1,0.2c0.4,0.2,0.7,0.4,0.9,0.6c0.3,0.3,0.5,0.6,0.6,0.9c0.2,0.4,0.2,0.7,0.2,1.1v8.1c0,0.3,0.1,0.5,0.3,0.8
							c0.2,0.2,0.5,0.3,0.8,0.3c0.3,0,0.5-0.1,0.7-0.3c0.2-0.2,0.3-0.5,0.3-0.8v-1.5c0.2,0.4,0.5,0.7,0.8,1c0.5,0.5,1,0.8,1.6,1.1
							c0.6,0.3,1.3,0.4,1.9,0.4c0.7,0,1.3-0.1,1.9-0.4c0.6-0.3,1.1-0.6,1.6-1.1c0.5-0.5,0.8-1,1.1-1.6c0,0,0-0.1,0-0.1
							c0,0,0,0.1,0,0.1c0.3,0.6,0.6,1.1,1.1,1.6c0.5,0.5,1,0.8,1.6,1.1c0.6,0.3,1.3,0.4,2,0.4c0.7,0,1.3-0.1,1.9-0.4
							c0.6-0.3,1.1-0.6,1.6-1.1c0.5-0.5,0.8-1,1.1-1.6c0,0,0-0.1,0.1-0.1c0,0,0,0.1,0.1,0.1c0.3,0.6,0.6,1.1,1.1,1.6
							c0.5,0.5,1,0.8,1.6,1.1c0.6,0.3,1.3,0.4,1.9,0.4c0.7,0,1.3-0.1,1.9-0.4c0.6-0.3,1.1-0.6,1.6-1.1c0.5-0.5,0.8-1,1.1-1.6
							c0.3-0.6,0.4-1.3,0.4-1.9v-4.1C192.4,128.5,192.3,127.9,192,127.3z M139.3,136.1l5.6-7.6c0,0.2,0,0.5,0,0.7v4.1
							c0,0.7,0.1,1.3,0.4,1.9c0.1,0.3,0.3,0.6,0.4,0.8c0,0,0,0,0,0L139.3,136.1L139.3,136.1z M152.8,130.3H147v-1.1
							c0-0.4,0.1-0.8,0.2-1.1c0.1-0.4,0.4-0.7,0.6-0.9c0.3-0.3,0.6-0.5,0.9-0.6c0.4-0.1,0.7-0.2,1.1-0.2c0.4,0,0.8,0.1,1.1,0.2
							c0.4,0.2,0.7,0.4,0.9,0.6c0.3,0.3,0.5,0.6,0.6,0.9c0.2,0.4,0.2,0.7,0.2,1.1V130.3z M171.6,133.4c0,0.4-0.1,0.8-0.2,1.1
							s-0.4,0.7-0.6,0.9c-0.3,0.3-0.6,0.5-0.9,0.6c-0.3,0.1-0.7,0.2-1.1,0.2c-0.4,0-0.8-0.1-1.1-0.2c-0.4-0.1-0.7-0.4-0.9-0.6
							c-0.3-0.3-0.5-0.6-0.6-0.9c-0.2-0.4-0.2-0.7-0.2-1.1v-4.1c0-0.4,0.1-0.8,0.2-1.1c0.1-0.4,0.4-0.7,0.6-0.9
							c0.3-0.3,0.6-0.5,0.9-0.6c0.4-0.1,0.7-0.2,1.1-0.2c0.4,0,0.8,0.1,1.1,0.2c0.4,0.2,0.7,0.4,0.9,0.6c0.3,0.3,0.5,0.6,0.6,0.9
							c0.2,0.4,0.2,0.7,0.2,1.1L171.6,133.4L171.6,133.4z M180.9,133.4c0,0.4-0.1,0.8-0.2,1.1c-0.2,0.4-0.4,0.7-0.6,0.9
							c-0.3,0.3-0.6,0.5-0.9,0.6c-0.4,0.1-0.7,0.2-1.1,0.2c-0.4,0-0.8-0.1-1.1-0.2c-0.4-0.1-0.7-0.4-0.9-0.6
							c-0.3-0.3-0.5-0.6-0.6-0.9c-0.1-0.4-0.2-0.7-0.2-1.1v-4.1c0-0.4,0.1-0.8,0.2-1.1c0.2-0.4,0.4-0.7,0.6-0.9
							c0.3-0.3,0.6-0.5,0.9-0.6c0.4-0.1,0.7-0.2,1.1-0.2c0.4,0,0.8,0.1,1.1,0.2c0.4,0.2,0.7,0.4,0.9,0.6c0.3,0.3,0.5,0.6,0.6,0.9
							c0.1,0.4,0.2,0.7,0.2,1.1V133.4L180.9,133.4z M190.3,133.4c0,0.4-0.1,0.8-0.2,1.1c-0.2,0.4-0.4,0.7-0.6,0.9
							c-0.3,0.3-0.6,0.5-0.9,0.6c-0.4,0.1-0.7,0.2-1.1,0.2c-0.4,0-0.8-0.1-1.1-0.2c-0.4-0.1-0.7-0.4-0.9-0.6
							c-0.3-0.3-0.5-0.6-0.6-0.9c-0.2-0.4-0.2-0.7-0.2-1.1v-4.1c0-0.4,0.1-0.8,0.2-1.1c0.1-0.4,0.4-0.7,0.6-0.9
							c0.3-0.3,0.6-0.5,0.9-0.6c0.4-0.1,0.7-0.2,1.1-0.2c0.4,0,0.8,0.1,1.1,0.2c0.4,0.2,0.7,0.4,0.9,0.6c0.3,0.3,0.5,0.6,0.6,0.9
							c0.2,0.4,0.2,0.7,0.2,1.1V133.4L190.3,133.4z"/>
					</g>
					<g>
						<path class="st10" d="M186.5,159.3c0,3.9-3.2,7.1-7.1,7.1h-29.1c-3.9,0-7.1-3.2-7.1-7.1v-2.6c0-3.9,3.2-7.1,7.1-7.1h29.1
							c3.9,0,7.1,3.2,7.1,7.1V159.3z"/>
						<g>
							<path class="st2" d="M158,159.9c0,0.6-0.2,1.1-0.7,1.5c-0.5,0.4-1.1,0.5-1.9,0.5c-0.9,0-1.5-0.1-2-0.3v-0.8
								c0.3,0.1,0.6,0.2,1,0.3c0.3,0.1,0.7,0.1,1,0.1c0.6,0,1-0.1,1.3-0.3s0.4-0.5,0.4-0.9c0-0.2,0-0.5-0.1-0.6s-0.3-0.3-0.5-0.4
								c-0.2-0.1-0.6-0.3-1.1-0.5c-0.7-0.2-1.1-0.5-1.4-0.8s-0.4-0.8-0.4-1.3c0-0.6,0.2-1,0.6-1.3c0.4-0.3,1-0.5,1.6-0.5
								c0.7,0,1.4,0.1,2,0.4l-0.3,0.7c-0.6-0.2-1.2-0.4-1.7-0.4c-0.4,0-0.8,0.1-1,0.3c-0.2,0.2-0.4,0.5-0.4,0.8c0,0.2,0,0.5,0.1,0.6
								c0.1,0.2,0.2,0.3,0.5,0.4c0.2,0.1,0.6,0.3,1,0.4c0.8,0.3,1.3,0.6,1.6,0.9S158,159.4,158,159.9z"/>
							<path class="st2" d="M164,159.1c0,0.9-0.2,1.6-0.7,2.1c-0.4,0.5-1.1,0.7-1.8,0.7c-0.5,0-0.9-0.1-1.3-0.3s-0.7-0.5-0.9-1
								c-0.2-0.4-0.3-0.9-0.3-1.5c0-0.9,0.2-1.6,0.7-2s1-0.7,1.8-0.7c0.8,0,1.4,0.2,1.8,0.8S164,158.2,164,159.1z M159.9,159.1
								c0,0.7,0.1,1.2,0.4,1.6c0.3,0.4,0.7,0.5,1.2,0.5s0.9-0.2,1.2-0.5s0.4-0.9,0.4-1.6c0-0.7-0.1-1.2-0.4-1.6s-0.7-0.5-1.2-0.5
								c-0.5,0-0.9,0.2-1.2,0.5C160.1,157.9,159.9,158.4,159.9,159.1z"/>
							<path class="st2" d="M170.1,159.1c0,0.9-0.2,1.6-0.7,2.1c-0.4,0.5-1.1,0.7-1.8,0.7c-0.5,0-0.9-0.1-1.3-0.3s-0.7-0.5-0.9-1
								c-0.2-0.4-0.3-0.9-0.3-1.5c0-0.9,0.2-1.6,0.7-2s1-0.7,1.8-0.7c0.8,0,1.4,0.2,1.8,0.8S170.1,158.2,170.1,159.1z M166,159.1
								c0,0.7,0.1,1.2,0.4,1.6c0.3,0.4,0.7,0.5,1.2,0.5s0.9-0.2,1.2-0.5s0.4-0.9,0.4-1.6c0-0.7-0.1-1.2-0.4-1.6s-0.7-0.5-1.2-0.5
								c-0.5,0-0.9,0.2-1.2,0.5C166.1,157.9,166,158.4,166,159.1z"/>
							<path class="st2" d="M175.2,161.8v-3.5c0-0.4-0.1-0.8-0.3-1c-0.2-0.2-0.5-0.3-0.9-0.3c-0.6,0-1,0.2-1.2,0.5s-0.4,0.8-0.4,1.5
								v2.8h-0.8v-5.4h0.7l0.1,0.7h0c0.2-0.3,0.4-0.5,0.7-0.6c0.3-0.1,0.6-0.2,1-0.2c0.6,0,1.1,0.2,1.5,0.5s0.5,0.8,0.5,1.5v3.5
								L175.2,161.8L175.2,161.8z"/>
						</g>
					</g>
				</g>
				<g>
					<g>
						<path class="st11" d="M72.3,134.1c0.6-0.7,1.2-1.3,1.7-2c0.1-0.1,0.2-0.3,0.2-0.5c0-1.1,0-2.2,0-3.2c0-0.2,0-0.3-0.2-0.5
							c-0.7-0.6-1.3-1.2-2-1.8c-0.1-0.1-0.3-0.2-0.5-0.2c-1,0-1.9,0-2.9,0c-0.2,0-0.3-0.1-0.3-0.3c0-1.1,0-2.2,0-3.3
							c0-0.2,0.1-0.3,0.3-0.3c1,0,2,0,2.9,0c0.3,0,0.3,0.1,0.3,0.3c0,0.9,0,1.9,0,2.8c0,0.2,0.1,0.3,0.2,0.4
							c0.6,0.6,1.3,1.2,1.9,1.7c0.1,0.1,0.3,0.2,0.5,0.2c1.1,0,2.2,0,3.3,0c0.2,0,0.4-0.1,0.5-0.2c0.3-0.4,0.7-0.7,1-1.1
							c0.1-0.1,0.2-0.3,0.2-0.5c0-1,0-1.9,0-2.9c0-0.3,0.1-0.4,0.4-0.4c1,0,1.9,0,2.9,0c0.3,0,0.3,0.1,0.3,0.4c0,1.1,0,2.1,0,3.2
							c0,0.3-0.1,0.4-0.4,0.4c-0.9,0-1.8,0-2.6,0c-0.3,0-0.5,0.1-0.6,0.3c-0.1,0.2-0.3,0.4-0.5,0.5c-0.5,0.4-0.6,0.9-0.6,1.5
							c0,0.9,0,1.8,0,2.8c0,0.2,0.1,0.3,0.2,0.5c0.5,0.4,0.9,0.8,1.4,1.3c0.1,0.1,0.3,0.2,0.5,0.2c0.8,0,1.7,0,2.5,0
							c0.2,0,0.3,0.1,0.3,0.3c0,1,0,2,0,2.9c0,0.2-0.1,0.3-0.3,0.3c-0.9,0-1.8,0-2.7,0c-0.2,0-0.3-0.1-0.3-0.3c0-0.9,0-1.7,0-2.6
							c0-0.2,0-0.3-0.2-0.5c-0.5-0.4-0.9-0.9-1.4-1.3c-0.1-0.1-0.3-0.2-0.4-0.2c-1.1,0-2.1,0-3.2,0c-0.2,0-0.3,0.1-0.4,0.2
							c-0.5,0.5-0.9,1-1.4,1.6c-0.2,0.1-0.1,0.2-0.1,0.4c0,1.4,0,2.7,0,4.1c0,0.4,0,0.4-0.4,0.4c-1.3,0-2.7,0-4,0
							c-0.4,0-0.4,0-0.4-0.4c0-1.3,0-2.7,0-4c0-0.3,0.1-0.3,0.3-0.3c1.2,0,2.4,0,3.6,0C72.1,134.1,72.2,134.1,72.3,134.1z"/>
						<path class="st12" d="M75.1,151.9c-0.1-0.1,0-0.2,0-0.4c0-4,0-8.1,0-12.1c0-0.1,0.1-0.3-0.1-0.3c-0.2,0-0.3,0-0.5,0.1
							c-0.5,0.6-1,1.1-1.5,1.7c-0.1,0.1-0.1,0.3-0.1,0.4c0,0.9,0,1.8,0,2.7c0,0.3-0.1,0.3-0.3,0.3c-0.9,0-1.7,0-2.6,0
							c-0.2,0-0.3-0.1-0.3-0.3c0-1,0-1.9,0-2.9c0-0.2,0.1-0.3,0.3-0.3c0.7,0,1.5,0,2.2,0c0.2,0,0.3-0.1,0.4-0.2
							c0.5-0.6,1.1-1.2,1.6-1.8c0.1-0.1,0.2-0.3,0.2-0.4c0-1.1,0-2.3,0-3.4c0-0.3,0.1-0.4,0.4-0.4c1.2,0,2.5,0,3.7,0
							c0.3,0,0.4,0.1,0.4,0.4c0,1.1,0,2.2,0,3.3c0,0.2,0.1,0.4,0.2,0.5c0.2,0.2,0.4,0.3,0.6,0.5c0.5,0.7,1.2,0.9,2,0.8
							c0.6-0.1,1.2,0,1.7,0c0.2,0,0.3,0.1,0.3,0.3c0,1,0,1.9,0,2.9c0,0.2,0,0.3-0.3,0.3c-0.9,0-1.8,0-2.6,0c-0.2,0-0.3-0.1-0.3-0.3
							c0-0.8,0-1.6,0-2.4c0-0.2,0-0.3-0.2-0.4c-0.5-0.4-1-0.9-1.4-1.3c-0.2-0.2-0.4-0.1-0.6-0.1c-0.1,0-0.1,0.1-0.1,0.2
							c0,0.2,0,0.4,0,0.6c0,3.9,0,7.8,0,11.7c0,0.1,0,0.2,0,0.4c-0.2-0.2-0.1-0.4-0.1-0.6c0-3.8,0-7.6,0-11.4c0-0.8,0-0.7-0.7-0.7
							c-0.6,0-1.1,0-1.7,0c-0.4,0-0.5,0-0.5,0.5c0,2.1,0,4.2,0,6.3c0,1.8,0,3.6,0,5.3C75.2,151.6,75.3,151.8,75.1,151.9z"/>
						<path class="st12" d="M73.9,123.9c0-0.6,0-1.2,0-1.8c0-0.2,0-0.3-0.2-0.4c0,0-0.1,0-0.1-0.1c-0.5-0.4-0.9-0.9-1.4-1.1
							c-0.5-0.2-1.2-0.1-1.8-0.1c-0.5,0-1,0-1.4,0c-0.2,0-0.3,0-0.3-0.2c0-1,0-2,0-3c0-0.2,0.1-0.2,0.2-0.2c1,0,2,0,3,0
							c0.2,0,0.2,0.1,0.2,0.3c0,0.8,0,1.6,0,2.4c0,0.2,0,0.3,0.2,0.4c0.6,0.5,1.1,0.9,1.7,1.4c0.1,0.1,0.3,0.2,0.5,0.2
							c1,0,1.9,0,2.9,0c0.2,0,0.3-0.1,0.4-0.2c0.4-0.5,0.9-1,1.3-1.5c0.1-0.2,0.2-0.3,0.2-0.5c0-0.9,0-1.7,0-2.6
							c0-0.3,0-0.4,0.3-0.4c1,0,1.9,0,2.9,0c0.2,0,0.3,0.1,0.3,0.3c0,1,0,2,0,2.9c0,0.2-0.1,0.3-0.3,0.3c-0.9,0-1.8,0-2.6,0
							c-0.2,0-0.3,0.1-0.5,0.2c-0.5,0.6-1,1.1-1.5,1.7c-0.1,0.1-0.2,0.3-0.2,0.5c0,1.1,0,2.1,0,3.2c0,0.3-0.1,0.3-0.3,0.3
							c-1.1,0-2.2,0-3.3,0c-0.2,0-0.3-0.1-0.3-0.3C73.9,125.1,73.9,124.5,73.9,123.9z"/>
						<path class="st13" d="M71.9,129.9c0,0.6,0,1.2,0,1.9c0,0.3-0.1,0.4-0.4,0.4c-1.1,0-2.2,0-3.4,0c-0.2,0-0.4,0.1-0.5,0.2
							c-0.5,0.5-1,1-1.5,1.5c-0.1,0.1-0.2,0.3-0.2,0.4c0,0.8,0,1.6,0,2.4c0,0.2-0.1,0.3-0.3,0.3c-0.9,0-1.7,0-2.6,0
							c-0.2,0-0.3-0.1-0.3-0.3c0-1,0-1.9,0-2.9c0-0.2,0.1-0.3,0.3-0.3c0.8,0,1.7,0,2.5,0c0.2,0,0.3,0,0.4-0.2c0.5-0.5,1-1,1.6-1.6
							c0.1-0.1,0.2-0.2,0.2-0.4c0-1.2,0-2.3,0-3.5c0-0.1,0-0.3-0.1-0.4c-0.4-0.4-0.7-0.8-1.1-1.1c-0.1-0.1-0.3-0.2-0.4-0.2
							c-0.9,0-1.7,0-2.6,0c-0.2,0-0.3-0.1-0.3-0.3c0-1,0-1.9,0-2.9c0-0.2,0.1-0.3,0.3-0.3c0.9,0,1.7,0,2.6,0c0.2,0,0.3,0.1,0.3,0.3
							c0,0.8,0,1.5,0,2.3c0,0.2,0,0.3,0.2,0.5c0.5,0.5,1,1.1,1.5,1.6c0.1,0.1,0.2,0.2,0.4,0.2c1,0,2,0,3.1,0c0.3,0,0.3,0.1,0.3,0.3
							C71.9,128.7,71.9,129.3,71.9,129.9z"/>
						<path class="st12" d="M81.1,129.9c0-0.6,0-1.2,0-1.8c0-0.3,0.1-0.4,0.4-0.4c1,0,2.1,0,3.1,0c0.2,0,0.4-0.1,0.5-0.2
							c0.4-0.5,0.9-1,1.3-1.5c0.1-0.1,0.2-0.3,0.2-0.5c0-0.9,0-1.7,0-2.6c0-0.2,0-0.3,0.3-0.3c0.9,0,1.8,0,2.6,0
							c0.2,0,0.3,0.1,0.3,0.2c0,1,0,2,0,2.9c0,0.2-0.1,0.3-0.3,0.2c-0.8,0-1.6,0-2.4,0c-0.2,0-0.4,0-0.5,0.2
							c-0.4,0.5-0.8,0.9-1.2,1.4c-0.1,0.1-0.2,0.3-0.2,0.5c0,1.1,0,2.3,0,3.4c0,0.2,0.1,0.3,0.2,0.5c0.5,0.4,1,0.8,1.5,1.3
							c0.1,0.1,0.3,0.2,0.5,0.2c0.9,0,1.7,0,2.6,0c0.2,0,0.3,0,0.3,0.3c0,1,0,1.9,0,2.9c0,0.2-0.1,0.3-0.3,0.3c-0.9,0-1.8,0-2.6,0
							c-0.2,0-0.3-0.1-0.3-0.3c0-0.8,0-1.6,0-2.4c0-0.2-0.1-0.3-0.2-0.5c-0.6-0.5-1.2-1-1.7-1.5c-0.1-0.1-0.3-0.2-0.5-0.2
							c-1.1,0-2.2,0-3.2,0c-0.3,0-0.3-0.1-0.3-0.3C81.1,131.2,81.1,130.6,81.1,129.9z"/>
						<path class="st14" d="M75.1,151.9c0-1.1,0-2.1,0-3.2c0-3.1,0-6.2,0-9.2c0-0.3,0.1-0.4,0.4-0.4c0.8,0,1.5,0,2.3,0
							c0.3,0,0.4,0.1,0.4,0.4c0,3.6,0,7.3,0,10.9c0,0.5,0,1,0,1.5c-0.4,0.1-0.8,0-1.2,0C76.4,151.9,75.8,152,75.1,151.9z"/>
						<path class="st14" d="M72.7,152.8c0.7,0,1.4,0,2,0c0.2,0,0.2,0.1,0.3,0.2c0.4,0.7,0.9,1.5,1.3,2.2c0.1,0.1,0.1,0.2,0.2,0.3
							c0.4-0.6,0.8-1.2,1.1-1.8c0.3-0.8,0.8-1.1,1.6-0.9c0.3,0.1,0.7,0,1.1,0c0,0.2-0.1,0.2-0.1,0.3c-0.8,1.3-1.6,2.6-2.5,3.9
							c-0.1,0.2-0.2,0.4-0.2,0.6c0,0.8,0,1.6,0,2.4c0,0.2-0.1,0.3-0.3,0.3c-0.5,0-0.9,0-1.4,0c-0.2,0-0.3-0.1-0.3-0.3
							c0-0.8,0-1.6,0-2.4c0-0.3-0.1-0.5-0.2-0.7C74.5,155.6,73.6,154.3,72.7,152.8z"/>
						<path class="st11" d="M63.7,131.7c-0.6,0-1.2,0-1.8,0c-0.2,0-0.3,0-0.3-0.3c0-1.1,0-2.3,0-3.4c0-0.2,0.1-0.3,0.3-0.3
							c1.2,0,2.4,0,3.6,0c0.2,0,0.3,0.1,0.3,0.3c0,1.1,0,2.3,0,3.4c0,0.2-0.1,0.3-0.3,0.3C64.9,131.7,64.3,131.7,63.7,131.7z"/>
						<path class="st11" d="M91.1,129.7c0,0.6,0,1.2,0,1.7c0,0.2-0.1,0.3-0.3,0.3c-1.1,0-2.1,0-3.2,0c-0.2,0-0.3-0.1-0.3-0.3
							c0-1.2,0-2.3,0-3.5c0-0.2,0.1-0.3,0.3-0.3c1.1,0,2.1,0,3.2,0c0.2,0,0.3,0.1,0.3,0.3C91.1,128.5,91.1,129.1,91.1,129.7z"/>
						<path class="st11" d="M74.2,117.6c0-0.5,0-1,0-1.5c0-0.2,0.1-0.2,0.2-0.2c0.9,0,1.8,0,2.7,0c0.2,0,0.2,0.1,0.2,0.2
							c0,1,0,2,0,3c0,0.2-0.1,0.2-0.2,0.2c-0.9,0-1.8,0-2.7,0c-0.2,0-0.2-0.1-0.2-0.2C74.2,118.6,74.2,118.1,74.2,117.6z"/>
						<path class="st11" d="M86.7,120c0,0.4,0,0.8,0,1.3c0,0.2-0.1,0.3-0.3,0.3c-0.8,0-1.5,0-2.3,0c-0.2,0-0.2-0.1-0.2-0.2
							c0-0.9,0-1.7,0-2.6c0-0.2,0.1-0.2,0.2-0.2c0.8,0,1.5,0,2.3,0c0.2,0,0.2,0.1,0.2,0.2C86.7,119.2,86.7,119.6,86.7,120z"/>
						<path class="st11" d="M86.2,137.5c0.4,0,0.7,0,1.1,0c0.2,0,0.3,0,0.3,0.3c0,0.8,0,1.5,0,2.3c0,0.2-0.1,0.2-0.2,0.2
							c-0.8,0-1.6,0-2.3,0c-0.2,0-0.2-0.1-0.2-0.2c0-0.8,0-1.5,0-2.3c0-0.2,0.1-0.3,0.3-0.3C85.4,137.5,85.8,137.5,86.2,137.5z"/>
						<path class="st11" d="M72.3,134.1c-0.1,0.1-0.2,0.1-0.3,0.1c-1.2,0-2.3,0-3.5,0c-0.3,0-0.4,0.1-0.4,0.4c0,1.3,0,2.6,0,3.9
							c0,0.3,0.1,0.3,0.3,0.3c1.3,0,2.7,0,4,0c0.3,0,0.4-0.1,0.3-0.3c0-1.5,0-2.9,0-4.4c0-0.2,0.1-0.1,0.2-0.1
							c-0.1,0.1-0.1,0.3-0.1,0.4c0,1.4,0,2.8,0,4.3c0,0.3-0.1,0.4-0.3,0.3c-1.4,0-2.8,0-4.2,0c-0.3,0-0.3,0.1-0.3,0.3
							c0,0.5,0,1,0,1.6c0,0.2,0,0.3-0.3,0.3c-0.5,0-1,0-1.5,0c-0.2,0-0.3,0-0.3-0.3c0-0.6,0-1.1,0-1.7c0-0.2,0.1-0.3,0.3-0.3
							c0.5,0,1,0,1.4,0c0.3,0,0.3-0.1,0.3-0.3c0-1.4,0-2.8,0-4.1c0-0.3,0.1-0.4,0.4-0.4C69.7,134.1,71,134.1,72.3,134.1z"/>
						<path class="st11" d="M67.6,120.3c0,0.3,0,0.7,0,1c0,0.2,0,0.2-0.2,0.2c-0.6,0-1.2,0-1.8,0c-0.2,0-0.2-0.1-0.2-0.2
							c0-0.7,0-1.3,0-2c0-0.2,0-0.2,0.2-0.2c0.6,0,1.2,0,1.8,0c0.2,0,0.2,0.1,0.2,0.2C67.6,119.6,67.6,120,67.6,120.3z"/>
						<path class="st14" d="M93.9,152.9c-1.3-0.2-2.5,0-3.8-0.1c-0.3,0-0.2,0.2-0.2,0.3c0,1.1,0,2.3,0,3.4c0,1.2,0,2.3,0,3.5
							c0,0.2,0,0.3,0.2,0.3c1.2,0,2.3,0,3.5,0c1.3-0.1,2.4-0.7,3.1-1.9C98,156,96.6,153.2,93.9,152.9z M93.3,158.6
							c-0.4,0-0.8,0-1.3,0c-0.2,0-0.2,0-0.2-0.2c0-1.2,0-2.5,0-3.7c0-0.1,0.1-0.2,0.2-0.2c0.2,0,0.5,0,0.7,0v0c0.1,0,0.3,0,0.4,0
							c1.2,0,1.9,0.8,2,1.9C95.2,157.6,94.5,158.5,93.3,158.6z"/>
						<path class="st14" d="M63.4,155.6c-0.3-1.4-1.5-2.5-3.1-2.7c-1.2-0.2-2.5,0-3.7-0.1c-0.3,0-0.4,0.1-0.4,0.3c0,1.1,0,2.3,0,3.4
							c0,1.2,0,2.3,0,3.5c0,0.2,0.1,0.3,0.3,0.3c1,0,2.1,0,3.1,0c0.9,0,1.7-0.2,2.4-0.7C63.2,158.8,63.8,157.2,63.4,155.6z
							 M59.9,158.6c-0.5,0.1-1,0-1.5,0.1c-0.2,0-0.2-0.1-0.2-0.3c0-0.6,0-1.2,0-1.8c0-0.6,0-1.2,0-1.8c0-0.2,0-0.3,0.3-0.3
							c0.5,0,0.9,0,1.4,0c1,0.1,1.7,0.9,1.7,2C61.5,157.6,60.9,158.4,59.9,158.6z"/>
						<path class="st14" d="M70.4,158c-0.2-0.3-0.2-0.4,0.1-0.6c0.5-0.2,0.8-0.6,0.9-1.1c0.7-1.7-0.4-3.4-2.2-3.5
							c-1.3-0.1-2.5,0-3.8,0c-0.2,0-0.2,0.1-0.2,0.2c0,2.4,0,4.7,0,7.1c0,0.2,0,0.2,0.2,0.2c0.5,0,1,0,1.5,0c0.2,0,0.2,0,0.2-0.2
							c0-0.5,0-1.1,0-1.6c0-0.7,0-0.7,0.7-0.7c0.2,0,0.4,0.1,0.5,0.3c0.3,0.7,0.7,1.3,1,2c0.1,0.1,0.1,0.2,0.3,0.2
							c0.7,0,1.3,0,2.1,0C71.2,159.5,70.8,158.7,70.4,158z M68.9,156.1c-0.5,0-1,0-1.6,0c-0.1,0-0.2-0.1-0.2-0.2c0-0.4,0-0.8,0-1.3
							c0-0.1,0.1-0.2,0.2-0.2c0.3,0,0.5,0,0.8,0c0,0,0,0,0,0c0.2,0,0.5,0,0.7,0c0.5,0,0.8,0.3,0.8,0.7
							C69.7,155.7,69.4,156.1,68.9,156.1z"/>
						<path class="st14" d="M88.3,160.2c-0.9-2.4-1.8-4.8-2.7-7.2c-0.1-0.2-0.1-0.2-0.3-0.2c-0.7,0-1.3,0-2,0
							c-0.2,0-0.3,0.1-0.3,0.2c-0.2,0.5-0.3,0.9-0.5,1.4c-0.7,1.9-1.4,3.7-2.1,5.6c-0.1,0.3,0,0.3,0.2,0.3c0.3,0,0.6,0,1,0
							c0.3,0,0.6,0.1,0.9,0c0.2-0.1,0.2-0.5,0.3-0.8c0.1-0.2,0.1-0.2,0.3-0.2c0.6,0,1.2,0,1.8,0c0.9,0,0.9,0,1.2,0.8
							c0,0,0,0.1,0,0.1c0,0.1,0.1,0.1,0.2,0.1c0.7,0,1.3,0,2,0C88.3,160.3,88.3,160.2,88.3,160.2z M85.1,157.6c-0.5,0-1,0-1.5,0
							c-0.2,0-0.2-0.1-0.1-0.2c0.3-0.8,0.6-1.7,0.9-2.6c0.3,0.9,0.6,1.8,0.9,2.6C85.2,157.5,85.2,157.6,85.1,157.6z"/>
					</g>
				</g>
			</g>
		</g>
	</g>
</g>
</svg>
