<?xml version="1.0" encoding="utf-8"?>
<!-- Generator: Adobe Illustrator 26.3.1, SVG Export Plug-In . SVG Version: 6.00 Build 0)  -->
<svg version="1.1" id="Layer_1" xmlns="http://www.w3.org/2000/svg" xmlns:xlink="http://www.w3.org/1999/xlink" x="0px" y="0px"
	 viewBox="0 0 350 120" style="enable-background:new 0 0 350 120;" xml:space="preserve">
<style type="text/css">
	.st0{fill:#FFFFFF;}
	.st1{enable-background:new    ;}
	.st2{fill:none;stroke:#00AEEF;stroke-width:2;stroke-linecap:round;stroke-linejoin:round;stroke-miterlimit:10;}
	.st3{fill:#575C70;}
	.st4{fill:#ED1165;}
	.st5{fill:#00AEEF;}
	.st6{fill:none;stroke:#5A5B6A;stroke-width:2;stroke-linecap:round;stroke-linejoin:round;stroke-miterlimit:10;}
	.st7{fill:none;stroke:#575C70;stroke-width:2;stroke-linecap:round;stroke-linejoin:round;stroke-miterlimit:10;}
	.st8{fill:none;stroke:#ED1165;stroke-width:2;stroke-linecap:round;stroke-linejoin:round;stroke-miterlimit:10;}
</style>
<g>
	<circle class="st0" cx="64.2" cy="60" r="55.1"/>
	<g class="st1">
		<path class="st0" d="M165.7,75.4L160,62.6c0.2-0.1,0.3-0.1,0.5-0.2c2.1-1.1,3.8-2.5,4.9-4.4c1.2-1.9,1.8-4,1.8-6.4
			c0-2.5-0.6-4.7-1.8-6.5c-1.2-1.8-2.9-3.2-5.1-4.2c-2.2-1-4.9-1.4-8.1-1.4h-19.4v4.7l4.5,0.9v30.3l-4.5,0.9v4.7h16.7v-4.7l-4.5-0.9
			V64l7.8,0l6.8,16.8h9.4v-4.7L165.7,75.4z M145.1,58V45.4h7.2c2.4,0,4.2,0.6,5.5,1.8c1.2,1.2,1.8,2.7,1.8,4.7c0,2-0.6,3.5-1.8,4.6
			c-1.2,1.1-3.1,1.6-5.7,1.6L145.1,58L145.1,58z"/>
		<path class="st0" d="M189.2,82.1c-2.9,0-5.6-0.3-8.1-1c-2.5-0.7-4.9-1.9-7.2-3.5v-9.8h6l0.9,6c0.9,0.7,2.1,1.3,3.6,1.7
			c1.5,0.4,3.1,0.7,4.8,0.7c1.6,0,2.9-0.2,4-0.7s1.9-1.1,2.5-1.9c0.6-0.8,0.9-1.8,0.9-2.9c0-1.1-0.3-2-0.8-2.8
			c-0.5-0.8-1.4-1.5-2.5-2.2c-1.2-0.7-2.7-1.3-4.7-1.9c-3.2-0.9-5.8-1.9-8-3c-2.1-1.1-3.7-2.5-4.8-4.1c-1.1-1.6-1.6-3.5-1.6-5.7
			c0-2.2,0.6-4.2,1.8-5.9c1.2-1.7,2.9-3.1,5.1-4.1c2.2-1,4.7-1.5,7.5-1.5c3.1,0,5.9,0.4,8.3,1.2s4.5,1.9,6.2,3.3v9.1h-5.8l-1.1-5.7
			c-0.8-0.5-1.8-0.9-3-1.3c-1.2-0.4-2.7-0.5-4.3-0.5c-1.4,0-2.6,0.2-3.7,0.6c-1.1,0.4-1.9,1-2.5,1.9c-0.6,0.8-0.9,1.8-0.9,2.9
			c0,1,0.3,1.8,0.8,2.6c0.5,0.7,1.4,1.4,2.7,2c1.3,0.6,2.9,1.3,5.1,1.9c4.5,1.2,8,2.9,10.3,5c2.3,2.1,3.5,4.8,3.5,8.1
			c0,2.3-0.6,4.3-1.9,6c-1.3,1.7-3,3-5.3,4C194.9,81.7,192.3,82.1,189.2,82.1z"/>
		<path class="st0" d="M207.7,93.4v-4.7l4.1-0.9V56.3l-4.5-0.9v-4.7h11.5l0.4,3.6c0.9-1.3,2.1-2.4,3.4-3.1c1.3-0.7,2.9-1.1,4.7-1.1
			c2.5,0,4.6,0.7,6.4,2c1.8,1.4,3.1,3.3,4.1,5.7c0.9,2.4,1.4,5.3,1.4,8.5v0.6c0,3-0.5,5.7-1.4,7.9c-0.9,2.3-2.3,4-4.1,5.3
			c-1.8,1.3-3.9,1.9-6.4,1.9c-1.7,0-3.2-0.3-4.5-0.9c-1.3-0.6-2.4-1.5-3.3-2.7v9.3l4.2,0.9v4.7L207.7,93.4L207.7,93.4z M225,76.2
			c2.2,0,3.9-0.8,4.9-2.5c1-1.6,1.6-3.9,1.6-6.7v-0.6c0-2-0.2-3.8-0.7-5.3c-0.5-1.5-1.2-2.7-2.1-3.6c-1-0.9-2.2-1.3-3.7-1.3
			c-1.2,0-2.3,0.3-3.2,0.8c-0.9,0.6-1.7,1.3-2.2,2.3v13.8c0.5,0.9,1.3,1.7,2.2,2.2C222.6,75.9,223.7,76.2,225,76.2z"/>
		<path class="st0" d="M253.3,82.1c-3.1,0-5.5-0.8-7.3-2.4c-1.8-1.6-2.7-3.8-2.7-6.7c0-1.9,0.5-3.6,1.6-5.1c1.1-1.5,2.6-2.6,4.7-3.4
			c2.1-0.8,4.6-1.2,7.5-1.2h4.4v-2.4c0-1.6-0.5-2.8-1.4-3.8c-0.9-0.9-2.3-1.4-4.1-1.4c-1,0-1.8,0.1-2.6,0.4c-0.8,0.2-1.5,0.6-2.1,1
			l-0.7,4.1h-5.6l-0.1-7.8c1.6-0.9,3.3-1.7,5.1-2.3c1.9-0.6,3.9-0.9,6.2-0.9c4,0,7.1,0.9,9.4,2.8c2.3,1.8,3.4,4.5,3.4,7.9V74
			c0,0.4,0,0.8,0,1.2c0,0.4,0,0.8,0.1,1.2l3.2,0.5v4.7h-9.8c-0.2-0.6-0.4-1.2-0.6-1.8c-0.2-0.6-0.3-1.2-0.4-1.9
			c-1,1.3-2.2,2.3-3.6,3.1C256.7,81.7,255.1,82.1,253.3,82.1z M255.2,76.3c1.3,0,2.5-0.3,3.7-0.9c1.1-0.6,2-1.4,2.6-2.3v-5H257
			c-2,0-3.5,0.5-4.5,1.4c-1,0.9-1.5,2-1.5,3.3c0,1.1,0.4,2,1.1,2.6C252.8,76,253.8,76.3,255.2,76.3z"/>
		<path class="st0" d="M290,82.1c-2.9,0-5.4-0.7-7.6-2c-2.1-1.3-3.8-3.1-4.9-5.5s-1.7-5-1.7-8v-0.9c0-3,0.6-5.7,1.7-8
			c1.2-2.3,2.8-4.2,4.9-5.5s4.6-2,7.5-2c2.7,0,5.1,0.4,7,1.3c2,0.9,3.6,1.9,4.8,3.1v8.5H296l-1.1-5.5c-0.5-0.5-1.1-0.9-1.9-1.2
			c-0.8-0.3-1.6-0.5-2.4-0.5c-1.5,0-2.8,0.4-3.9,1.2c-1.1,0.8-1.8,1.9-2.4,3.4c-0.5,1.5-0.8,3.2-0.8,5.2v0.9c0,2.1,0.3,3.9,0.9,5.3
			c0.6,1.4,1.4,2.5,2.3,3.2c1,0.7,2.1,1.1,3.3,1.1c1.6,0,2.8-0.4,3.8-1.2c1-0.8,1.6-2,1.9-3.5h6.6l0.1,0.2c-0.3,2.1-0.9,3.9-1.8,5.5
			s-2.3,2.8-4,3.7C294.9,81.7,292.7,82.1,290,82.1z"/>
		<path class="st0" d="M321.1,82.1c-2.9,0-5.5-0.6-7.6-1.9c-2.2-1.3-3.9-3.1-5-5.4c-1.2-2.3-1.8-4.9-1.8-7.8v-1.2
			c0-3,0.6-5.7,1.7-8.1c1.1-2.4,2.8-4.2,4.8-5.5c2.1-1.3,4.5-2,7.2-2c2.8,0,5.1,0.6,7,1.7c1.9,1.1,3.3,2.7,4.3,4.8
			c1,2.1,1.4,4.5,1.4,7.4v4.3h-18.4l-0.1,0.2c0.1,1.5,0.4,2.8,1,3.9c0.6,1.1,1.4,2.1,2.5,2.7c1.1,0.7,2.4,1,3.9,1
			c1.6,0,3.1-0.2,4.4-0.6c1.3-0.4,2.6-1,3.8-1.8l2.2,4.8c-1.2,1-2.8,1.9-4.7,2.6C325.8,81.8,323.6,82.1,321.1,82.1z M314.7,63.1
			h11.1v-0.7c0-1.3-0.2-2.4-0.6-3.4c-0.4-1-1-1.7-1.7-2.2c-0.8-0.5-1.8-0.8-3.1-0.8c-1.1,0-2.1,0.3-2.9,0.9s-1.5,1.4-1.9,2.5
			c-0.5,1.1-0.8,2.2-0.9,3.6L314.7,63.1z"/>
	</g>
	<g>
		<line class="st2" x1="84.7" y1="70" x2="72.1" y2="63.9"/>
		<circle class="st3" cx="23.2" cy="39.5" r="6.2"/>
		<circle class="st4" cx="23.2" cy="60" r="6.2"/>
		<circle class="st5" cx="23.2" cy="80.5" r="6.2"/>
		<circle class="st4" cx="64.2" cy="39.5" r="6.2"/>
		<circle class="st3" cx="64.2" cy="60" r="6.2"/>
		<circle class="st4" cx="64.2" cy="80.5" r="6.2"/>
		<circle class="st5" cx="64.2" cy="101" r="6.2"/>
		<circle class="st3" cx="64.2" cy="19" r="6.2"/>
		<circle class="st4" cx="43.7" cy="49.5" r="6.2"/>
		<circle class="st4" cx="43.7" cy="70" r="6.2"/>
		<circle class="st5" cx="43.7" cy="90.5" r="6.2"/>
		<circle class="st3" cx="43.7" cy="29" r="6.2"/>
		<circle class="st4" cx="84.7" cy="49.5" r="6.2"/>
		<circle class="st5" cx="84.7" cy="70" r="6.2"/>
		<circle class="st5" cx="84.7" cy="90.5" r="6.2"/>
		<circle class="st3" cx="84.7" cy="29" r="6.2"/>
		<circle class="st3" cx="105.2" cy="39.5" r="6.2"/>
		<circle class="st4" cx="105.2" cy="60" r="6.2"/>
		<circle class="st5" cx="105.2" cy="80.5" r="6.2"/>
		<line class="st6" x1="51" y1="53.4" x2="64.2" y2="60"/>
		<polyline class="st7" points="105.2,39.5 64.2,19 23.2,39.5 36.2,46 		"/>
		<polyline class="st8" points="105.2,60 64.2,39.5 23.2,60 64.2,80.5 		"/>
		<polyline class="st2" points="84.7,70 105.2,80.5 64.2,101 23.2,80.5 		"/>
	</g>
</g>
</svg>
