<?xml version="1.0" encoding="UTF-8"?>
<svg id="Layer_1" xmlns="http://www.w3.org/2000/svg" version="1.1" viewBox="0 0 350 120">
  <!-- Generator: Adobe Illustrator 29.5.1, SVG Export Plug-In . SVG Version: 2.1.0 Build 141)  -->
  <circle cx="70.061" cy="60" r="56.916" fill="#fff"/>
  <g>
    <g>
      <polygon points="31.027 37.464 31.027 82.536 70.061 105.072 70.061 60 31.027 37.464" fill="#8cb7fd"/>
      <path d="M70.061,108.072c-.518,0-1.036-.134-1.5-.402l-39.034-22.535c-.928-.535-1.5-1.525-1.5-2.598v-45.072c0-1.072.572-2.062,1.5-2.598.928-.537,2.072-.537,3,0l39.034,22.536c.928.535,1.5,1.525,1.5,2.598v45.071c0,1.072-.572,2.062-1.5,2.598-.464.269-.982.402-1.5.402ZM34.027,80.804l33.034,19.071v-38.143l-33.034-19.072v38.144Z" fill="#004494"/>
    </g>
    <g>
      <polygon points="70.061 60 70.061 105.072 109.094 82.536 109.094 37.464 70.061 60" fill="#fae68d"/>
      <path d="M70.061,108.072c-.518,0-1.036-.134-1.5-.402-.928-.535-1.5-1.525-1.5-2.598v-45.071c0-1.072.572-2.062,1.5-2.598l39.033-22.536c.928-.537,2.072-.537,3,0,.928.535,1.5,1.525,1.5,2.598v45.072c0,1.072-.572,2.062-1.5,2.598l-39.033,22.535c-.464.269-.982.402-1.5.402ZM73.061,61.733v38.143l33.033-19.071v-38.144l-33.033,19.072Z" fill="#004494"/>
    </g>
    <g>
      <polygon points="31.027 37.464 70.061 60 109.094 37.464 70.061 14.928 31.027 37.464" fill="#a8ecaf"/>
      <path d="M70.061,63c-.518,0-1.036-.134-1.5-.402l-39.034-22.536c-.928-.535-1.5-1.525-1.5-2.598s.572-2.062,1.5-2.598l39.034-22.536c.928-.537,2.072-.537,3,0l39.033,22.536c.928.535,1.5,1.525,1.5,2.598s-.572,2.062-1.5,2.598l-39.033,22.536c-.464.269-.982.402-1.5.402ZM37.027,37.464l33.034,19.072,33.033-19.072-33.033-19.072-33.034,19.072Z" fill="#004494"/>
    </g>
  </g>
  <g>
    <path d="M138.019,81.058v-2.643h.999c.822,0,1.575-.088,2.261-.265.685-.176,1.242-.537,1.674-1.086.43-.548.646-1.37.646-2.467v-28.95c0-1.135-.226-1.977-.675-2.525-.451-.548-1.019-.91-1.703-1.086-.686-.177-1.419-.265-2.202-.265h-.999v-2.643h16.677c3.562,0,6.489.432,8.779,1.292,2.291.861,3.983,2.124,5.08,3.788,1.096,1.664,1.645,3.729,1.645,6.195,0,2.113-.422,3.886-1.263,5.314-.843,1.429-1.919,2.574-3.23,3.435-1.312.862-2.672,1.527-4.081,1.997l7.811,12.508c1.018,1.606,1.986,2.8,2.906,3.582.92.784,1.968,1.175,3.143,1.175h.234v2.643h-1.175c-2.388,0-4.297-.127-5.726-.382-1.429-.254-2.594-.764-3.493-1.526-.901-.764-1.782-1.889-2.643-3.377l-7.635-13.154h-4.58v11.979c0,1.097.206,1.919.616,2.467.411.549.959.91,1.645,1.086.685.177,1.418.265,2.202.265h.881v2.643h-17.793ZM154.345,59.683c3.249,0,5.49-.743,6.724-2.231s1.85-3.738,1.85-6.754c0-2.074-.284-3.738-.852-4.991s-1.497-2.163-2.789-2.73-2.976-.852-5.05-.852h-3.759v17.559h3.876Z" fill="#fff"/>
    <path d="M190.283,81.645c-2.113,0-3.955-.205-5.52-.616-1.566-.411-2.839-.998-3.816-1.762-.979-.764-1.714-1.653-2.202-2.672-.49-1.018-.734-2.094-.734-3.229,0-.94.205-1.732.616-2.379.411-.646.969-1.135,1.674-1.468.705-.332,1.546-.499,2.525-.499.078,1.762.411,3.376.998,4.845.587,1.468,1.468,2.623,2.643,3.465s2.643,1.262,4.405,1.262c2.543,0,4.531-.625,5.959-1.879,1.43-1.252,2.145-2.995,2.145-5.227,0-1.409-.305-2.603-.91-3.582-.607-.978-1.586-1.898-2.936-2.76-1.352-.86-3.162-1.762-5.434-2.701-2.544-1.018-4.619-2.134-6.224-3.348-1.605-1.213-2.789-2.613-3.553-4.198-.764-1.586-1.145-3.415-1.145-5.491,0-2.27.577-4.218,1.732-5.843,1.153-1.624,2.739-2.867,4.756-3.729s4.296-1.292,6.841-1.292c2.467,0,4.541.322,6.225.969,1.684.646,2.967,1.479,3.848,2.496s1.32,2.095,1.32,3.229c0,1.292-.451,2.29-1.35,2.995-.902.704-2.193,1.057-3.877,1.057,0-1.213-.215-2.407-.646-3.582-.43-1.175-1.125-2.144-2.084-2.907-.959-.763-2.242-1.145-3.846-1.145-2.154,0-3.837.567-5.051,1.703s-1.82,2.682-1.82,4.639c0,1.449.284,2.692.852,3.729s1.527,1.987,2.877,2.848c1.352.861,3.221,1.782,5.607,2.76,2.389.979,4.404,2.036,6.049,3.171,1.645,1.137,2.879,2.438,3.701,3.905.82,1.469,1.232,3.221,1.232,5.256,0,2.506-.607,4.649-1.82,6.431-1.215,1.781-2.936,3.151-5.168,4.11s-4.855,1.438-7.869,1.438Z" fill="#fff"/>
    <path d="M208.957,94.976v-2.643h.527c.783,0,1.527-.099,2.232-.294.705-.196,1.281-.587,1.732-1.175.449-.587.676-1.468.676-2.643v-31.945c0-1.213-.217-2.104-.646-2.672-.432-.567-.988-.939-1.674-1.116-.686-.176-1.439-.264-2.26-.264h-.705v-2.643h10.629l.764,5.108h.234c.861-1.722,2.006-3.102,3.436-4.14,1.428-1.037,3.277-1.557,5.549-1.557,3.875,0,6.842,1.303,8.896,3.905,2.055,2.604,3.084,6.744,3.084,12.42s-1.029,9.817-3.084,12.42c-2.055,2.604-5.041,3.905-8.955,3.905-2.193,0-3.992-.44-5.402-1.321s-2.545-2.064-3.406-3.553h-.234c.078,1.136.137,2.32.176,3.553.039,1.233.059,2.261.059,3.083v4.992c0,1.135.225,1.986.676,2.554.449.567,1.027.94,1.732,1.116s1.447.265,2.23.265h.471v2.643h-16.736ZM228.04,77.77c2.428,0,4.16-1.058,5.197-3.172,1.037-2.113,1.557-5.226,1.557-9.337s-.52-7.193-1.557-9.249c-1.037-2.055-2.77-3.083-5.197-3.083-1.918,0-3.416.451-4.492,1.351-1.076.901-1.84,2.271-2.289,4.111-.451,1.84-.676,4.149-.676,6.929,0,2.701.225,4.973.676,6.812.449,1.841,1.223,3.239,2.318,4.198,1.096.96,2.584,1.439,4.463,1.439Z" fill="#fff"/>
    <path d="M256.521,81.645c-1.723,0-3.279-.343-4.668-1.027-1.391-.685-2.477-1.723-3.26-3.112s-1.174-3.161-1.174-5.314c0-3.132,1.096-5.451,3.289-6.959,2.191-1.507,5.539-2.339,10.041-2.495l4.816-.177v-3.406c0-1.409-.119-2.643-.354-3.699s-.715-1.889-1.438-2.496c-.727-.606-1.812-.91-3.26-.91-1.371,0-2.418.274-3.143.822-.725.549-1.213,1.292-1.467,2.231-.256.939-.383,2.056-.383,3.348-1.879,0-3.289-.294-4.229-.881-.939-.588-1.408-1.565-1.408-2.937s.498-2.476,1.496-3.317c1-.842,2.33-1.448,3.994-1.82s3.494-.559,5.49-.559c3.719,0,6.508.764,8.369,2.29,1.859,1.527,2.789,4.15,2.789,7.869v15.092c0,1.097.117,1.948.352,2.555.236.607.627,1.038,1.176,1.292.547.255,1.252.382,2.113.382h.176v2.643h-8.75l-1.057-4.757h-.469c-.822,1.058-1.625,1.987-2.408,2.79s-1.684,1.429-2.701,1.879c-1.02.449-2.33.675-3.936.675ZM258.4,77.828c1.488,0,2.762-.323,3.818-.97,1.057-.646,1.879-1.575,2.467-2.789.586-1.213.881-2.622.881-4.228v-4.64l-3.465.176c-2.037.079-3.641.402-4.816.97-1.174.567-2.006,1.36-2.496,2.378-.49,1.019-.732,2.271-.732,3.759,0,1.174.154,2.153.469,2.936.312.784.793,1.38,1.439,1.791.645.411,1.457.617,2.436.617Z" fill="#fff"/>
    <path d="M294.986,81.645c-2.664,0-5.021-.538-7.076-1.614-2.057-1.076-3.67-2.799-4.846-5.168-1.174-2.368-1.762-5.49-1.762-9.366,0-4.229.598-7.546,1.791-9.954,1.193-2.407,2.799-4.11,4.816-5.108,2.016-.999,4.295-1.498,6.842-1.498,1.879,0,3.619.235,5.225.705s2.908,1.145,3.906,2.025,1.498,1.988,1.498,3.318c0,.901-.207,1.654-.617,2.261-.412.607-1.037,1.057-1.879,1.351-.844.294-1.988.44-3.436.44,0-1.292-.139-2.456-.412-3.494-.273-1.037-.732-1.879-1.379-2.525-.646-.646-1.596-.969-2.848-.969-1.371,0-2.576.392-3.613,1.175s-1.84,2.144-2.406,4.081c-.568,1.938-.852,4.649-.852,8.134,0,2.74.283,5.021.852,6.841.566,1.82,1.457,3.171,2.672,4.052,1.213.881,2.818,1.321,4.814,1.321,1.252,0,2.398-.186,3.436-.558s1.947-.881,2.73-1.526c.783-.646,1.389-1.381,1.82-2.202.354.274.627.607.822.998.195.392.295.861.295,1.409,0,.939-.383,1.86-1.146,2.76-.764.901-1.908,1.645-3.436,2.231-1.525.588-3.465.881-5.812.881Z" fill="#fff"/>
    <path d="M324.818,81.645c-4.463,0-7.92-1.409-10.365-4.228-2.447-2.819-3.67-6.772-3.67-11.862,0-5.48,1.174-9.621,3.523-12.42,2.348-2.799,5.656-4.199,9.924-4.199,3.914,0,6.998,1.185,9.248,3.553,2.252,2.369,3.377,5.883,3.377,10.541v2.76h-19.438c.078,4.19.832,7.233,2.262,9.132,1.428,1.899,3.533,2.849,6.312,2.849,2.035,0,3.748-.44,5.139-1.321,1.389-.881,2.438-1.889,3.141-3.024.354.117.666.372.939.763.273.393.412.862.412,1.41,0,.821-.383,1.702-1.145,2.643-.764.939-1.939,1.742-3.523,2.407-1.586.665-3.633.998-6.137.998ZM330.103,62.443c0-3.093-.451-5.559-1.352-7.399-.9-1.84-2.428-2.76-4.58-2.76-1.996,0-3.562.871-4.697,2.613-1.137,1.742-1.783,4.257-1.939,7.546h12.568Z" fill="#fff"/>
  </g>
</svg>